G04*
G04 #@! TF.GenerationSoftware,Altium Limited,Altium Designer,21.1.1 (26)*
G04*
G04 Layer_Color=128*
%FSTAX24Y24*%
%MOIN*%
G70*
G04*
G04 #@! TF.SameCoordinates,5FF4FBEF-6F1C-4BA3-BCFF-5D0DF395B62B*
G04*
G04*
G04 #@! TF.FilePolarity,Positive*
G04*
G01*
G75*
%ADD90C,0.0020*%
D90*
X028563Y01853D02*
X028917D01*
X02874Y018353D02*
Y018707D01*
X029563Y01853D02*
X029917D01*
X02974Y018353D02*
Y018707D01*
X028563Y01753D02*
X028917D01*
X02874Y017353D02*
Y017707D01*
X029563Y01753D02*
X029917D01*
X02974Y017353D02*
Y017707D01*
X015968Y024195D02*
X016308D01*
X016138Y024025D02*
Y024365D01*
X016968Y024195D02*
X017308D01*
X017138Y024025D02*
Y024365D01*
X031052Y01241D02*
X031328D01*
X03119Y012272D02*
Y012548D01*
X031052Y01291D02*
X031328D01*
X03119Y012772D02*
Y013048D01*
X031552Y01241D02*
X031828D01*
X03169Y012272D02*
Y012548D01*
X031552Y01291D02*
X031828D01*
X03169Y012772D02*
Y013048D01*
X032052Y01241D02*
X032328D01*
X03219Y012272D02*
Y012548D01*
X032052Y01291D02*
X032328D01*
X03219Y012772D02*
Y013048D01*
X032552Y01241D02*
X032828D01*
X03269Y012272D02*
Y012548D01*
X032552Y01291D02*
X032828D01*
X03269Y012772D02*
Y013048D01*
X033052Y01241D02*
X033328D01*
X03319Y012272D02*
Y012548D01*
X033052Y01291D02*
X033328D01*
X03319Y012772D02*
Y013048D01*
X014773Y0473D02*
X015127D01*
X01495Y047123D02*
Y047477D01*
X015773Y0473D02*
X016127D01*
X01595Y047123D02*
Y047477D01*
X014773Y0463D02*
X015127D01*
X01495Y046123D02*
Y046477D01*
X015773Y0463D02*
X016127D01*
X01595Y046123D02*
Y046477D01*
X014773Y0453D02*
X015127D01*
X01495Y045123D02*
Y045477D01*
X015773Y0453D02*
X016127D01*
X01595Y045123D02*
Y045477D01*
X034138Y043561D02*
X034437D01*
X034287Y043411D02*
Y04371D01*
X033138Y043561D02*
X033437D01*
X033287Y043411D02*
Y04371D01*
X032138Y043561D02*
X032437D01*
X032287Y043411D02*
Y04371D01*
X0214Y01151D02*
X02174D01*
X02157Y01134D02*
Y01168D01*
X0194Y01151D02*
X01974D01*
X01957Y01134D02*
Y01168D01*
X0184Y01151D02*
X01874D01*
X01857Y01134D02*
Y01168D01*
X0174Y01151D02*
X01774D01*
X01757Y01134D02*
Y01168D01*
X0164Y01151D02*
X01674D01*
X01657Y01134D02*
Y01168D01*
X0204Y01151D02*
X02074D01*
X02057Y01134D02*
Y01168D01*
X038373Y05179D02*
X038807D01*
X03859Y051573D02*
Y052007D01*
X038373Y05079D02*
X038807D01*
X03859Y050573D02*
Y051007D01*
X038373Y04979D02*
X038807D01*
X03859Y049573D02*
Y050007D01*
X038373Y04879D02*
X038807D01*
X03859Y048573D02*
Y049007D01*
X038373Y04779D02*
X038807D01*
X03859Y047573D02*
Y048007D01*
X038373Y04679D02*
X038807D01*
X03859Y046573D02*
Y047007D01*
X038373Y04579D02*
X038807D01*
X03859Y045573D02*
Y046007D01*
X038373Y04479D02*
X038807D01*
X03859Y044573D02*
Y045007D01*
X038373Y04379D02*
X038807D01*
X03859Y043573D02*
Y044007D01*
X038373Y04279D02*
X038807D01*
X03859Y042573D02*
Y043007D01*
X038373Y04179D02*
X038807D01*
X03859Y041573D02*
Y042007D01*
X038373Y04079D02*
X038807D01*
X03859Y040573D02*
Y041007D01*
X038373Y03979D02*
X038807D01*
X03859Y039573D02*
Y040007D01*
X038373Y03879D02*
X038807D01*
X03859Y038573D02*
Y039007D01*
X038373Y03779D02*
X038807D01*
X03859Y037573D02*
Y038007D01*
X038373Y03679D02*
X038807D01*
X03859Y036573D02*
Y037007D01*
X038373Y03579D02*
X038807D01*
X03859Y035573D02*
Y036007D01*
X038373Y03479D02*
X038807D01*
X03859Y034573D02*
Y035007D01*
X038373Y03379D02*
X038807D01*
X03859Y033573D02*
Y034007D01*
X038373Y03279D02*
X038807D01*
X03859Y032573D02*
Y033007D01*
X039373Y05179D02*
X039807D01*
X03959Y051573D02*
Y052007D01*
X039373Y05079D02*
X039807D01*
X03959Y050573D02*
Y051007D01*
X039373Y04979D02*
X039807D01*
X03959Y049573D02*
Y050007D01*
X039373Y04879D02*
X039807D01*
X03959Y048573D02*
Y049007D01*
X039373Y04779D02*
X039807D01*
X03959Y047573D02*
Y048007D01*
X039373Y04679D02*
X039807D01*
X03959Y046573D02*
Y047007D01*
X039373Y04579D02*
X039807D01*
X03959Y045573D02*
Y046007D01*
X039373Y04479D02*
X039807D01*
X03959Y044573D02*
Y045007D01*
X039373Y04379D02*
X039807D01*
X03959Y043573D02*
Y044007D01*
X039373Y04279D02*
X039807D01*
X03959Y042573D02*
Y043007D01*
X039373Y04179D02*
X039807D01*
X03959Y041573D02*
Y042007D01*
X039373Y04079D02*
X039807D01*
X03959Y040573D02*
Y041007D01*
X039373Y03979D02*
X039807D01*
X03959Y039573D02*
Y040007D01*
X039373Y03879D02*
X039807D01*
X03959Y038573D02*
Y039007D01*
X039373Y03779D02*
X039807D01*
X03959Y037573D02*
Y038007D01*
X039373Y03679D02*
X039807D01*
X03959Y036573D02*
Y037007D01*
X039373Y03579D02*
X039807D01*
X03959Y035573D02*
Y036007D01*
X039373Y03479D02*
X039807D01*
X03959Y034573D02*
Y035007D01*
X039373Y03379D02*
X039807D01*
X03959Y033573D02*
Y034007D01*
X039373Y03279D02*
X039807D01*
X03959Y032573D02*
Y033007D01*
X039393Y03036D02*
X039827D01*
X03961Y030143D02*
Y030577D01*
X039393Y02936D02*
X039827D01*
X03961Y029143D02*
Y029577D01*
X039393Y02836D02*
X039827D01*
X03961Y028143D02*
Y028577D01*
X039393Y02736D02*
X039827D01*
X03961Y027143D02*
Y027577D01*
X039393Y02636D02*
X039827D01*
X03961Y026143D02*
Y026577D01*
X039393Y02536D02*
X039827D01*
X03961Y025143D02*
Y025577D01*
X039393Y02436D02*
X039827D01*
X03961Y024143D02*
Y024577D01*
X039393Y02336D02*
X039827D01*
X03961Y023143D02*
Y023577D01*
X039393Y02236D02*
X039827D01*
X03961Y022143D02*
Y022577D01*
X039393Y02136D02*
X039827D01*
X03961Y021143D02*
Y021577D01*
X039393Y02036D02*
X039827D01*
X03961Y020143D02*
Y020577D01*
X039393Y01936D02*
X039827D01*
X03961Y019143D02*
Y019577D01*
X039393Y01836D02*
X039827D01*
X03961Y018143D02*
Y018577D01*
X039393Y01736D02*
X039827D01*
X03961Y017143D02*
Y017577D01*
X039393Y01636D02*
X039827D01*
X03961Y016143D02*
Y016577D01*
X039393Y01536D02*
X039827D01*
X03961Y015143D02*
Y015577D01*
X039393Y01436D02*
X039827D01*
X03961Y014143D02*
Y014577D01*
X039393Y01336D02*
X039827D01*
X03961Y013143D02*
Y013577D01*
X039393Y01236D02*
X039827D01*
X03961Y012143D02*
Y012577D01*
X039393Y01136D02*
X039827D01*
X03961Y011143D02*
Y011577D01*
X038393Y03036D02*
X038827D01*
X03861Y030143D02*
Y030577D01*
X038393Y02936D02*
X038827D01*
X03861Y029143D02*
Y029577D01*
X038393Y02836D02*
X038827D01*
X03861Y028143D02*
Y028577D01*
X038393Y02736D02*
X038827D01*
X03861Y027143D02*
Y027577D01*
X038393Y02636D02*
X038827D01*
X03861Y026143D02*
Y026577D01*
X038393Y02536D02*
X038827D01*
X03861Y025143D02*
Y025577D01*
X038393Y02436D02*
X038827D01*
X03861Y024143D02*
Y024577D01*
X038393Y02336D02*
X038827D01*
X03861Y023143D02*
Y023577D01*
X038393Y02236D02*
X038827D01*
X03861Y022143D02*
Y022577D01*
X038393Y02136D02*
X038827D01*
X03861Y021143D02*
Y021577D01*
X038393Y02036D02*
X038827D01*
X03861Y020143D02*
Y020577D01*
X038393Y01936D02*
X038827D01*
X03861Y019143D02*
Y019577D01*
X038393Y01836D02*
X038827D01*
X03861Y018143D02*
Y018577D01*
X038393Y01736D02*
X038827D01*
X03861Y017143D02*
Y017577D01*
X038393Y01636D02*
X038827D01*
X03861Y016143D02*
Y016577D01*
X038393Y01536D02*
X038827D01*
X03861Y015143D02*
Y015577D01*
X038393Y01436D02*
X038827D01*
X03861Y014143D02*
Y014577D01*
X038393Y01336D02*
X038827D01*
X03861Y013143D02*
Y013577D01*
X038393Y01236D02*
X038827D01*
X03861Y012143D02*
Y012577D01*
X038393Y01136D02*
X038827D01*
X03861Y011143D02*
Y011577D01*
X011183Y03279D02*
X011617D01*
X0114Y032573D02*
Y033007D01*
X011183Y03379D02*
X011617D01*
X0114Y033573D02*
Y034007D01*
X011183Y03479D02*
X011617D01*
X0114Y034573D02*
Y035007D01*
X011183Y03579D02*
X011617D01*
X0114Y035573D02*
Y036007D01*
X011183Y03679D02*
X011617D01*
X0114Y036573D02*
Y037007D01*
X011183Y03779D02*
X011617D01*
X0114Y037573D02*
Y038007D01*
X011183Y03879D02*
X011617D01*
X0114Y038573D02*
Y039007D01*
X011183Y03979D02*
X011617D01*
X0114Y039573D02*
Y040007D01*
X011183Y04079D02*
X011617D01*
X0114Y040573D02*
Y041007D01*
X011183Y04179D02*
X011617D01*
X0114Y041573D02*
Y042007D01*
X011183Y04279D02*
X011617D01*
X0114Y042573D02*
Y043007D01*
X011183Y04379D02*
X011617D01*
X0114Y043573D02*
Y044007D01*
X011183Y04479D02*
X011617D01*
X0114Y044573D02*
Y045007D01*
X011183Y04579D02*
X011617D01*
X0114Y045573D02*
Y046007D01*
X011183Y04679D02*
X011617D01*
X0114Y046573D02*
Y047007D01*
X011183Y04779D02*
X011617D01*
X0114Y047573D02*
Y048007D01*
X011183Y04879D02*
X011617D01*
X0114Y048573D02*
Y049007D01*
X011183Y04979D02*
X011617D01*
X0114Y049573D02*
Y050007D01*
X011183Y05079D02*
X011617D01*
X0114Y050573D02*
Y051007D01*
X011183Y05179D02*
X011617D01*
X0114Y051573D02*
Y052007D01*
X012183Y03279D02*
X012617D01*
X0124Y032573D02*
Y033007D01*
X012183Y03379D02*
X012617D01*
X0124Y033573D02*
Y034007D01*
X012183Y03479D02*
X012617D01*
X0124Y034573D02*
Y035007D01*
X012183Y03579D02*
X012617D01*
X0124Y035573D02*
Y036007D01*
X012183Y03679D02*
X012617D01*
X0124Y036573D02*
Y037007D01*
X012183Y03779D02*
X012617D01*
X0124Y037573D02*
Y038007D01*
X012183Y03879D02*
X012617D01*
X0124Y038573D02*
Y039007D01*
X012183Y03979D02*
X012617D01*
X0124Y039573D02*
Y040007D01*
X012183Y04079D02*
X012617D01*
X0124Y040573D02*
Y041007D01*
X012183Y04179D02*
X012617D01*
X0124Y041573D02*
Y042007D01*
X012183Y04279D02*
X012617D01*
X0124Y042573D02*
Y043007D01*
X012183Y04379D02*
X012617D01*
X0124Y043573D02*
Y044007D01*
X012183Y04479D02*
X012617D01*
X0124Y044573D02*
Y045007D01*
X012183Y04579D02*
X012617D01*
X0124Y045573D02*
Y046007D01*
X012183Y04679D02*
X012617D01*
X0124Y046573D02*
Y047007D01*
X012183Y04779D02*
X012617D01*
X0124Y047573D02*
Y048007D01*
X012183Y04879D02*
X012617D01*
X0124Y048573D02*
Y049007D01*
X012183Y04979D02*
X012617D01*
X0124Y049573D02*
Y050007D01*
X012183Y05079D02*
X012617D01*
X0124Y050573D02*
Y051007D01*
X012183Y05179D02*
X012617D01*
X0124Y051573D02*
Y052007D01*
X012233Y01136D02*
X012667D01*
X01245Y011143D02*
Y011577D01*
X012233Y01236D02*
X012667D01*
X01245Y012143D02*
Y012577D01*
X012233Y01336D02*
X012667D01*
X01245Y013143D02*
Y013577D01*
X012233Y01436D02*
X012667D01*
X01245Y014143D02*
Y014577D01*
X012233Y01536D02*
X012667D01*
X01245Y015143D02*
Y015577D01*
X012233Y01636D02*
X012667D01*
X01245Y016143D02*
Y016577D01*
X012233Y01736D02*
X012667D01*
X01245Y017143D02*
Y017577D01*
X012233Y01836D02*
X012667D01*
X01245Y018143D02*
Y018577D01*
X012233Y01936D02*
X012667D01*
X01245Y019143D02*
Y019577D01*
X012233Y02036D02*
X012667D01*
X01245Y020143D02*
Y020577D01*
X012233Y02136D02*
X012667D01*
X01245Y021143D02*
Y021577D01*
X012233Y02236D02*
X012667D01*
X01245Y022143D02*
Y022577D01*
X012233Y02336D02*
X012667D01*
X01245Y023143D02*
Y023577D01*
X012233Y02436D02*
X012667D01*
X01245Y024143D02*
Y024577D01*
X012233Y02536D02*
X012667D01*
X01245Y025143D02*
Y025577D01*
X012233Y02636D02*
X012667D01*
X01245Y026143D02*
Y026577D01*
X012233Y02736D02*
X012667D01*
X01245Y027143D02*
Y027577D01*
X012233Y02836D02*
X012667D01*
X01245Y028143D02*
Y028577D01*
X012233Y02936D02*
X012667D01*
X01245Y029143D02*
Y029577D01*
X012233Y03036D02*
X012667D01*
X01245Y030143D02*
Y030577D01*
X011233Y01136D02*
X011667D01*
X01145Y011143D02*
Y011577D01*
X011233Y01236D02*
X011667D01*
X01145Y012143D02*
Y012577D01*
X011233Y01336D02*
X011667D01*
X01145Y013143D02*
Y013577D01*
X011233Y01436D02*
X011667D01*
X01145Y014143D02*
Y014577D01*
X011233Y01536D02*
X011667D01*
X01145Y015143D02*
Y015577D01*
X011233Y01636D02*
X011667D01*
X01145Y016143D02*
Y016577D01*
X011233Y01736D02*
X011667D01*
X01145Y017143D02*
Y017577D01*
X011233Y01836D02*
X011667D01*
X01145Y018143D02*
Y018577D01*
X011233Y01936D02*
X011667D01*
X01145Y019143D02*
Y019577D01*
X011233Y02036D02*
X011667D01*
X01145Y020143D02*
Y020577D01*
X011233Y02136D02*
X011667D01*
X01145Y021143D02*
Y021577D01*
X011233Y02236D02*
X011667D01*
X01145Y022143D02*
Y022577D01*
X011233Y02336D02*
X011667D01*
X01145Y023143D02*
Y023577D01*
X011233Y02436D02*
X011667D01*
X01145Y024143D02*
Y024577D01*
X011233Y02536D02*
X011667D01*
X01145Y025143D02*
Y025577D01*
X011233Y02636D02*
X011667D01*
X01145Y026143D02*
Y026577D01*
X011233Y02736D02*
X011667D01*
X01145Y027143D02*
Y027577D01*
X011233Y02836D02*
X011667D01*
X01145Y028143D02*
Y028577D01*
X011233Y02936D02*
X011667D01*
X01145Y029143D02*
Y029577D01*
X011233Y03036D02*
X011667D01*
X01145Y030143D02*
Y030577D01*
X03452Y04063D02*
X03462D01*
X03457Y04058D02*
Y04068D01*
X03327Y04153D02*
X03337D01*
X03332Y04148D02*
Y04158D01*
X02951Y04156D02*
X02961D01*
X02956Y04151D02*
Y04161D01*
X02618Y04149D02*
X02628D01*
X02623Y04144D02*
Y04154D01*
X02762Y03771D02*
X02772D01*
X02767Y03766D02*
Y03776D01*
X027265Y046636D02*
X027365D01*
X027315Y046586D02*
Y046686D01*
X02875Y04683D02*
X02885D01*
X0288Y04678D02*
Y04688D01*
X03674Y05385D02*
X03684D01*
X03679Y0538D02*
Y0539D01*
X0403Y05405D02*
X0404D01*
X04035Y054D02*
Y0541D01*
X03542Y02994D02*
X03552D01*
X03547Y02989D02*
Y02999D01*
X03132Y02306D02*
X03142D01*
X03137Y02301D02*
Y02311D01*
X02856Y03534D02*
X02866D01*
X02861Y03529D02*
Y03539D01*
X01836Y04661D02*
X01846D01*
X01841Y04656D02*
Y04666D01*
X03019Y04032D02*
X03029D01*
X03024Y04027D02*
Y04037D01*
X03397Y03701D02*
X03407D01*
X03402Y03696D02*
Y03706D01*
X03471Y03797D02*
X03481D01*
X03476Y03792D02*
Y03802D01*
X03332Y036235D02*
X03342D01*
X03337Y036185D02*
Y036285D01*
X0304Y03292D02*
X0305D01*
X03045Y03287D02*
Y03297D01*
X02752Y0318D02*
X02762D01*
X02757Y03175D02*
Y03185D01*
X028527Y032693D02*
X028627D01*
X028577Y032643D02*
Y032743D01*
X014565Y03817D02*
X014665D01*
X014615Y03812D02*
Y03822D01*
X014565Y04064D02*
X014665D01*
X014615Y04059D02*
Y04069D01*
X014565Y03984D02*
X014665D01*
X014615Y03979D02*
Y03989D01*
X014565Y03892D02*
X014665D01*
X014615Y03887D02*
Y03897D01*
X01537Y03402D02*
X01547D01*
X01542Y03397D02*
Y03407D01*
X014657Y035275D02*
X014757D01*
X014707Y035225D02*
Y035325D01*
X0156Y0349D02*
X0157D01*
X01565Y03485D02*
Y03495D01*
X013515Y03533D02*
X013615D01*
X013565Y03528D02*
Y03538D01*
X01178Y04104D02*
X01188D01*
X01183Y04099D02*
Y04109D01*
X01521Y03551D02*
X01531D01*
X01526Y03546D02*
Y03556D01*
X012995Y03627D02*
X013095D01*
X013045Y03622D02*
Y03632D01*
X02696Y02719D02*
X02706D01*
X02701Y02714D02*
Y02724D01*
X02871Y03033D02*
X02881D01*
X02876Y03028D02*
Y03038D01*
X02831Y030835D02*
X02841D01*
X02836Y030785D02*
Y030885D01*
X02616Y03551D02*
X02626D01*
X02621Y03546D02*
Y03556D01*
X0267Y03833D02*
X0268D01*
X02675Y03828D02*
Y03838D01*
X02514Y03238D02*
X02524D01*
X02519Y03233D02*
Y03243D01*
X029426Y03705D02*
X029526D01*
X029476Y037D02*
Y0371D01*
X02943Y03977D02*
X02953D01*
X02948Y03972D02*
Y03982D01*
X02994Y04737D02*
X03004D01*
X02999Y04732D02*
Y04742D01*
X02281Y03039D02*
X02291D01*
X02286Y03034D02*
Y03044D01*
X02243Y03039D02*
X02253D01*
X02248Y03034D02*
Y03044D01*
X022673Y031133D02*
X022773D01*
X022723Y031083D02*
Y031183D01*
X01382Y04716D02*
X01392D01*
X01387Y04711D02*
Y04721D01*
X01513Y04158D02*
X01523D01*
X01518Y04153D02*
Y04163D01*
X02381Y03356D02*
X02391D01*
X02386Y03351D02*
Y03361D01*
X018533Y027406D02*
X018633D01*
X018583Y027356D02*
Y027456D01*
X02506Y03393D02*
X02516D01*
X02511Y03388D02*
Y03398D01*
X025395Y035007D02*
X025495D01*
X025445Y034957D02*
Y035057D01*
X02356Y0331D02*
X02366D01*
X02361Y03305D02*
Y03315D01*
X0261Y02846D02*
X0262D01*
X02615Y02841D02*
Y02851D01*
X02541Y03172D02*
X02551D01*
X02546Y03167D02*
Y03177D01*
X02565Y03155D02*
X02575D01*
X0257Y0315D02*
Y0316D01*
X01451Y04023D02*
X01461D01*
X01456Y04018D02*
Y04028D01*
X0172Y0403D02*
X0173D01*
X01725Y04025D02*
Y04035D01*
X02133Y03824D02*
X02143D01*
X02138Y03819D02*
Y03829D01*
X01464Y03938D02*
X01474D01*
X01469Y03933D02*
Y03943D01*
X01729Y03941D02*
X01739D01*
X01734Y03936D02*
Y03946D01*
X02211Y03741D02*
X02221D01*
X02216Y03736D02*
Y03746D01*
X02342Y03968D02*
X02352D01*
X02347Y03963D02*
Y03973D01*
X02896Y03571D02*
X02906D01*
X02901Y03566D02*
Y03576D01*
X02337Y03933D02*
X02347D01*
X02342Y03928D02*
Y03938D01*
X029332Y035188D02*
X029432D01*
X029382Y035138D02*
Y035238D01*
X028226Y034394D02*
X028326D01*
X028276Y034344D02*
Y034444D01*
X02338Y03862D02*
X02348D01*
X02343Y03857D02*
Y03867D01*
X025273Y030102D02*
X025373D01*
X025323Y030052D02*
Y030152D01*
X025536Y0296D02*
X025636D01*
X025586Y02955D02*
Y02965D01*
X02267Y029975D02*
X02277D01*
X02272Y029925D02*
Y030025D01*
X02166Y02859D02*
X02176D01*
X02171Y02854D02*
Y02864D01*
X01989Y0473D02*
X01999D01*
X01994Y04725D02*
Y04735D01*
X01832Y0489D02*
X01842D01*
X01837Y04885D02*
Y04895D01*
X01048Y02477D02*
X01058D01*
X01053Y02472D02*
Y02482D01*
X03226Y03895D02*
X03236D01*
X03231Y0389D02*
Y039D01*
X02995Y03865D02*
X03005D01*
X03Y0386D02*
Y0387D01*
X02831Y03895D02*
X02841D01*
X02836Y0389D02*
Y039D01*
X02298Y032474D02*
X02308D01*
X02303Y032424D02*
Y032524D01*
X03478Y0538D02*
X03488D01*
X03483Y05375D02*
Y05385D01*
X03325Y0538D02*
X03335D01*
X0333Y05375D02*
Y05385D01*
X03209Y05187D02*
X03219D01*
X03214Y05182D02*
Y05192D01*
X02891Y04627D02*
X02901D01*
X02896Y04622D02*
Y04632D01*
X02583Y0461D02*
X02593D01*
X02588Y04605D02*
Y04615D01*
X02933Y03122D02*
X02943D01*
X02938Y03117D02*
Y03127D01*
X02973Y02752D02*
X02983D01*
X02978Y02747D02*
Y02757D01*
X03024Y025D02*
X03034D01*
X03029Y02495D02*
Y02505D01*
X02966Y02398D02*
X02976D01*
X02971Y02393D02*
Y02403D01*
X02948Y02413D02*
X02958D01*
X02953Y02408D02*
Y02418D01*
X02968Y02712D02*
X02978D01*
X02973Y02707D02*
Y02717D01*
X03139Y0257D02*
X03149D01*
X03144Y02565D02*
Y02575D01*
X02488Y02516D02*
X02498D01*
X02493Y02511D02*
Y02521D01*
X024495Y02483D02*
X024595D01*
X024545Y02478D02*
Y02488D01*
X02517Y02499D02*
X02527D01*
X02522Y02494D02*
Y02504D01*
X0224Y02746D02*
X0225D01*
X02245Y02741D02*
Y02751D01*
X023375Y026625D02*
X023475D01*
X023425Y026575D02*
Y026675D01*
X02594Y025195D02*
X02604D01*
X02599Y025145D02*
Y025245D01*
X02708Y02547D02*
X02718D01*
X02713Y02542D02*
Y02552D01*
X02563Y02561D02*
X02573D01*
X02568Y02556D02*
Y02566D01*
X024757Y022601D02*
X024857D01*
X024807Y022551D02*
Y022651D01*
X026Y0235D02*
X0261D01*
X02605Y02345D02*
Y02355D01*
X02537Y02291D02*
X02547D01*
X02542Y02286D02*
Y02296D01*
X025687Y024143D02*
X025787D01*
X025737Y024093D02*
Y024193D01*
X02243Y02508D02*
X02253D01*
X02248Y02503D02*
Y02513D01*
X02537Y02367D02*
X02547D01*
X02542Y02362D02*
Y02372D01*
X02618Y01875D02*
X02628D01*
X02623Y0187D02*
Y0188D01*
X02674Y01891D02*
X02684D01*
X02679Y01886D02*
Y01896D01*
X024441Y027819D02*
X024541D01*
X024491Y027769D02*
Y027869D01*
X02534Y02694D02*
X02544D01*
X02539Y02689D02*
Y02699D01*
X02383Y01844D02*
X02393D01*
X02388Y01839D02*
Y01849D01*
X0278Y01892D02*
X0279D01*
X02785Y01887D02*
Y01897D01*
X02828Y01965D02*
X02838D01*
X02833Y0196D02*
Y0197D01*
X02815Y02065D02*
X02825D01*
X0282Y0206D02*
Y0207D01*
X01686Y02316D02*
X01696D01*
X01691Y02311D02*
Y02321D01*
X01598Y02158D02*
X01608D01*
X01603Y02153D02*
Y02163D01*
X01835Y02515D02*
X01845D01*
X0184Y0251D02*
Y0252D01*
Y02284D02*
X0185D01*
X01845Y02279D02*
Y02289D01*
X01721Y02014D02*
X01731D01*
X01726Y02009D02*
Y02019D01*
X02183Y01879D02*
X02193D01*
X02188Y01874D02*
Y01884D01*
X01784Y01951D02*
X01794D01*
X01789Y01946D02*
Y01956D01*
X01379Y0233D02*
X01389D01*
X01384Y02325D02*
Y02335D01*
X01309Y02334D02*
X01319D01*
X01314Y02329D02*
Y02339D01*
X023755Y0138D02*
X023855D01*
X023805Y01375D02*
Y01385D01*
X02178Y02733D02*
X02188D01*
X02183Y02728D02*
Y02738D01*
X02319Y01379D02*
X02329D01*
X02324Y01374D02*
Y01384D01*
X02653Y01713D02*
X02663D01*
X02658Y01708D02*
Y01718D01*
X03232Y0193D02*
X03242D01*
X03237Y01925D02*
Y01935D01*
X02396Y0115D02*
X02406D01*
X02401Y01145D02*
Y01155D01*
X03199Y02877D02*
X03209D01*
X03204Y02872D02*
Y02882D01*
X032195Y02841D02*
X032295D01*
X032245Y02836D02*
Y02846D01*
X031445Y028205D02*
X031545D01*
X031495Y028155D02*
Y028255D01*
X031765Y029765D02*
X031865D01*
X031815Y029715D02*
Y029815D01*
X03163Y028755D02*
X03173D01*
X03168Y028705D02*
Y028805D01*
X02107Y0139D02*
X02117D01*
X02112Y01385D02*
Y01395D01*
X02056Y01304D02*
X02066D01*
X02061Y01299D02*
Y01309D01*
X02903Y01375D02*
X02913D01*
X02908Y0137D02*
Y0138D01*
X028256Y026414D02*
X028356D01*
X028306Y026364D02*
Y026464D01*
X01692Y04248D02*
X01702D01*
X01697Y04243D02*
Y04253D01*
X01722Y05363D02*
X01732D01*
X01727Y05358D02*
Y05368D01*
X01669Y0534D02*
X01679D01*
X01674Y05335D02*
Y05345D01*
X03171Y02942D02*
X03181D01*
X03176Y02937D02*
Y02947D01*
X0325Y02933D02*
X0326D01*
X03255Y02928D02*
Y02938D01*
X01933Y04475D02*
X01943D01*
X01938Y0447D02*
Y0448D01*
X01613Y05321D02*
X01623D01*
X01618Y05316D02*
Y05326D01*
X01539Y05271D02*
X01549D01*
X01544Y05266D02*
Y05276D01*
X03063Y05251D02*
X03073D01*
X03068Y05246D02*
Y05256D01*
X0303Y05248D02*
X0304D01*
X03035Y05243D02*
Y05253D01*
X03181Y03031D02*
X03191D01*
X03186Y03026D02*
Y03036D01*
X02475Y03111D02*
X02485D01*
X0248Y03106D02*
Y03116D01*
X01554Y03339D02*
X01564D01*
X01559Y03334D02*
Y03344D01*
X0156Y03299D02*
X0157D01*
X01565Y03294D02*
Y03304D01*
X014613Y033497D02*
X014713D01*
X014663Y033447D02*
Y033547D01*
X014175Y033645D02*
X014275D01*
X014225Y033595D02*
Y033695D01*
X03734Y03978D02*
X03744D01*
X03739Y03973D02*
Y03983D01*
X03437Y03754D02*
X03447D01*
X03442Y03749D02*
Y03759D01*
X03365Y036605D02*
X03375D01*
X0337Y036555D02*
Y036655D01*
X025775Y02984D02*
X025875D01*
X025825Y02979D02*
Y02989D01*
X02284Y02812D02*
X02294D01*
X02289Y02807D02*
Y02817D01*
X025313Y029123D02*
X025413D01*
X025363Y029073D02*
Y029173D01*
X025291Y029356D02*
X025391D01*
X025341Y029306D02*
Y029406D01*
X02301Y02861D02*
X02311D01*
X02306Y02856D02*
Y02866D01*
X0303Y0281D02*
X0304D01*
X03035Y02805D02*
Y02815D01*
X030025Y028475D02*
X030125D01*
X030075Y028425D02*
Y028525D01*
X02446Y03136D02*
X02456D01*
X02451Y03131D02*
Y03141D01*
X01481Y02202D02*
X01491D01*
X01486Y02197D02*
Y02207D01*
X01324Y01473D02*
X01334D01*
X01329Y01468D02*
Y01478D01*
X023012Y036022D02*
X023112D01*
X023062Y035972D02*
Y036072D01*
X028413Y026723D02*
X028513D01*
X028463Y026673D02*
Y026773D01*
X028005Y026505D02*
X028105D01*
X028055Y026455D02*
Y026555D01*
X030573Y028183D02*
X030673D01*
X030623Y028133D02*
Y028233D01*
X01955Y01269D02*
X01965D01*
X0196Y01264D02*
Y01274D01*
X01855Y01276D02*
X01865D01*
X0186Y01271D02*
Y01281D01*
X01767Y01273D02*
X01777D01*
X01772Y01268D02*
Y01278D01*
X01671Y01265D02*
X01681D01*
X01676Y0126D02*
Y0127D01*
X01382Y02232D02*
X01392D01*
X01387Y02227D02*
Y02237D01*
X01535Y0218D02*
X01545D01*
X0154Y02175D02*
Y02185D01*
X02329Y01997D02*
X02339D01*
X02334Y01992D02*
Y02002D01*
X01513Y01485D02*
X01523D01*
X01518Y0148D02*
Y0149D01*
X01423Y01171D02*
X01433D01*
X01428Y01166D02*
Y01176D01*
X02325Y0361D02*
X02335D01*
X0233Y03605D02*
Y03615D01*
X023571Y036283D02*
X023671D01*
X023621Y036233D02*
Y036333D01*
X01626Y02775D02*
X01636D01*
X01631Y0277D02*
Y0278D01*
X025217Y03533D02*
X025317D01*
X025267Y03528D02*
Y03538D01*
X02482Y03517D02*
X02492D01*
X02487Y03512D02*
Y03522D01*
X025241Y035596D02*
X025341D01*
X025291Y035546D02*
Y035646D01*
X01379Y0277D02*
X01389D01*
X01384Y02765D02*
Y02775D01*
X0117Y055514D02*
X0118D01*
X01175Y055464D02*
Y055564D01*
X02025Y04627D02*
X02035D01*
X0203Y04622D02*
Y04632D01*
X0206Y05185D02*
X0207D01*
X02065Y0518D02*
Y0519D01*
X02132Y05012D02*
X02142D01*
X02137Y05007D02*
Y05017D01*
X02285Y05038D02*
X02295D01*
X0229Y05033D02*
Y05043D01*
X028425Y052535D02*
X028525D01*
X028475Y052485D02*
Y052585D01*
X030996Y055946D02*
X031096D01*
X031046Y055896D02*
Y055996D01*
X033333Y054873D02*
X033433D01*
X033383Y054823D02*
Y054923D01*
X02289Y05639D02*
X02299D01*
X02294Y05634D02*
Y05644D01*
X02052Y056658D02*
X02062D01*
X02057Y056608D02*
Y056708D01*
M02*
