M48
;Layer_Color=9474304
;FILE_FORMAT=2:4
INCH,LZ
;TYPE=PLATED
T1F00S00C0.0100
T2F00S00C0.0276
T3F00S00C0.0299
T4F00S00C0.0340
T5F00S00C0.0354
T6F00S00C0.0433
%
T01
X00427Y0017
X00328Y00472
X00517Y00484
X00675Y00264
X00771Y00272
X00859Y00275
X00959Y00268
X0106Y00303
X01111Y00389
X01323Y00378
X013795Y00379
X014Y00149
X01907Y00374
X02236Y00929
X02136Y01305
X02143Y01569
X021485Y018195
X02167Y018745
X02203Y01876
X022235Y0184
X02254Y01932
X02175Y01941
X021805Y019755
X02185Y0203
X02546Y01993
X020613Y018173
X02034Y01809
X020065Y018465
X01977Y01751
X01972Y01711
X018453Y016713
X018296Y016404
X018045Y016495
X017Y01718
X01712Y01546
X01598Y015185
X01567Y0156
X01521Y01498
X01492Y01515
X014535Y01482
X015727Y014133
X01541Y01366
Y0129
X014797Y012591
X01604Y01349
X01538Y01693
X014481Y017809
X01288Y01811
X01305Y0186
X0117Y01858
X01182Y01732
X01244Y01745
X013415Y016615
X01247Y01507
X00839Y01514
X00844Y01283
X0069Y01315
X00602Y01157
X00725Y01013
X00788Y0095
X01187Y00878
X01387Y00843
X01333Y00996
X01622Y00874
X01678Y0089
X01784Y00891
X01832Y00964
X01819Y01064
X01952Y01412
X0197Y01397
X02028Y01499
X01875Y02032
X01835Y020825
X01937Y02121
X01479Y0211
X015313Y020092
X015815Y01983
X015576Y01959
X015331Y019346
X015353Y019113
X01614Y01845
X01271Y019965
X01285Y02038
X01247
X012713Y021123
X008573Y017396
X0063Y01774
X01657Y00712
X00539Y01179
X00485Y01201
X00386Y01231
X00383Y01329
X00313Y01333
X00052Y01476
X00383Y01769
X004215Y023635
X004653Y023487
X00558Y02338
X00541Y02401
X00525Y0255
X004697Y025265
X003555Y02532
X003035Y02626
X004605Y02816
Y02891
X00468Y02937
X004605Y02983
X00455Y03022
X004605Y03063
X00517Y03157
X00182Y03103
X00724Y03029
X00733Y0294
X00696Y03247
X00937Y03474
X01029Y03626
X0084Y0366
X01587Y03609
X017305Y036626
X01879Y03682
X01895Y03626
X01955Y03155
X01947Y02976
X02023Y03031
X01999Y02864
X01835Y02894
X01766Y0277
X01674Y02832
X0162Y0255
X015281Y025586
X015257Y02532
X015435Y024997
X01486Y02516
X0151Y02392
X01385Y02355
X0136Y02309
X01302Y022464
X01518Y02237
X01545Y02171
X01569Y02154
X0145Y02135
X01756Y02179
X018567Y022683
X018266Y024384
X0186Y02533
X019Y0257
X019372Y025178
X019466Y02704
X02044Y02291
X013611Y026273
X01329Y02609
X013052Y026012
X01215Y0274
X01137Y02823
X01342Y02861
X01341Y02932
X01346Y02967
X01622Y03148
X00564Y02489
Y02298
X02336Y026225
X02369Y026595
X02401Y027
X02441Y02753
X02475Y02796
X02456Y03062
X02331Y03152
X0223Y02894
X02738Y02977
X02678Y04384
X02482Y04379
X02329
X023373Y044863
X02213Y04186
X03034Y04404
X021036Y045936
X02067Y0425
X02034Y04247
X018465Y042525
X01998Y03736
X01289Y04037
X01136Y04011
X01064Y04184
X01056Y046648
X01293Y04638
X00726Y04362
X00673Y04339
X00617Y0432
X00836Y03889
X00993Y03729
X00386Y03715
X00543Y0427
X00174Y045504
T02
X02118Y0024
Y0029
X02168
Y0024
X02218
X02268
Y0029
X02218Y0029
X02318
X02318Y0024
T03
X022277Y033551
X023277
X024277
T04
X00656Y0015
X00756
X00856
X00956
X01056
X01156
X007128Y014185
X006128
T05
X01873Y00752
Y00852
X01973
Y00752
X00494Y03529
Y03629
X00594
Y03529
Y03729
X00494
T06
X00144Y00135
X00244Y00135
X00244Y00235
Y00335
Y00435
X00244Y00535
X00144Y00535
Y00435
Y00335
Y00235
X0286
X0296
Y00335
Y00435
Y00535
X0286
Y00435
Y00335
Y00135
X0296
Y00635
Y00735
Y00835
Y00935
Y01035
Y01135
Y01235
Y01335
Y01435
Y01535
Y01635
Y01735
Y01835
Y01935
Y02035
X0286
Y01935
Y01835
Y01735
Y01635
Y01535
Y01435
Y01335
Y01235
Y01135
Y01035
Y00935
Y00835
Y00735
Y00635
X00244Y00635
X00244Y00735
Y00835
Y00935
X00144
Y01035
X00244Y01035
X00244Y01135
Y01235
Y01335
X00244Y01435
X00144Y01435
Y01535
X00244Y01535
X00244Y01635
Y01735
Y01835
X00144
Y01935
X00244Y01935
X00244Y02035
X00144
Y01735
Y01635
Y01335
Y01235
Y01135
Y00835
Y00735
Y00635
X00139Y02278
Y02378
Y02478
Y02578
Y02678
Y02778
Y02878
Y02978
Y03078
Y03178
Y03278
Y03378
Y03478
Y03578
Y03678
X00239
Y03578
Y03478
Y03378
Y03278
Y03178
Y03078
Y02978
Y02878
Y02778
Y02678
Y02578
Y02478
Y02378
Y02278
X02858
Y02378
Y02478
Y02578
Y02678
Y02778
Y02878
Y02978
Y03078
Y03178
Y03278
Y03378
Y03478
Y03578
Y03678
X02958
Y03578
Y03478
Y03378
Y03278
Y03178
Y03078
Y02978
Y02878
Y02778
Y02678
Y02578
Y02478
Y02378
Y02278
Y03778
X02858
Y03878
Y03978
Y04078
Y04178
X02958
Y04078
Y03978
Y03878
X00239
X00139
Y03778
X00239
Y03978
X00139
Y04078
Y04178
X00239
Y04078
M30
