G04*
G04 #@! TF.GenerationSoftware,Altium Limited,Altium Designer,21.1.1 (26)*
G04*
G04 Layer_Color=2752767*
%FSTAX24Y24*%
%MOIN*%
G70*
G04*
G04 #@! TF.SameCoordinates,5FF4FBEF-6F1C-4BA3-BCFF-5D0DF395B62B*
G04*
G04*
G04 #@! TF.FilePolarity,Positive*
G04*
G01*
G75*
%ADD90C,0.0020*%
%ADD91C,0.0027*%
D90*
X02866Y01845D02*
Y01861D01*
X02882D01*
Y01845D01*
X02866D01*
X02966D02*
Y01861D01*
X02982D01*
Y01845D01*
X02966D01*
X02866Y01745D02*
Y01761D01*
X02882D01*
Y01745D01*
X02866D01*
X02966D02*
Y01761D01*
X02982D01*
Y01745D01*
X02966D01*
X03119Y01233D02*
X03111Y01249D01*
X03127D01*
X03119Y01233D01*
Y01283D02*
X03111Y01299D01*
X03127D01*
X03119Y01283D01*
X03169Y01233D02*
X03161Y01249D01*
X03177D01*
X03169Y01233D01*
Y01283D02*
X03161Y01299D01*
X03177D01*
X03169Y01283D01*
X03219Y01233D02*
X03211Y01249D01*
X03227D01*
X03219Y01233D01*
X03219Y01283D02*
X03211Y01299D01*
X03227D01*
X03219Y01283D01*
X03269Y01233D02*
X03261Y01249D01*
X03277D01*
X03269Y01233D01*
Y01283D02*
X03261Y01299D01*
X03277D01*
X03269Y01283D01*
X03319Y01233D02*
X03311Y01249D01*
X03327D01*
X03319Y01233D01*
X03319Y01283D02*
X03311Y01299D01*
X03327D01*
X03319Y01283D01*
X01487Y04722D02*
Y04738D01*
X01503D01*
Y04722D01*
X01487D01*
X01587D02*
Y04738D01*
X01603D01*
Y04722D01*
X01587D01*
X01487Y04622D02*
Y04638D01*
X01503D01*
Y04622D01*
X01487D01*
X01587D02*
Y04638D01*
X01603D01*
Y04622D01*
X01587D01*
X01487Y04522D02*
Y04538D01*
X01503D01*
Y04522D01*
X01487D01*
X01587D02*
Y04538D01*
X01603D01*
Y04522D01*
X01587D01*
X034287Y043481D02*
X034327Y043521D01*
X034367D01*
X034327Y043561D01*
X034367Y043601D01*
X034327D01*
X034287Y043641D01*
X034247Y043601D01*
X034207D01*
X034247Y043561D01*
X034207Y043521D01*
X034247D01*
X034287Y043481D01*
X033287D02*
X033327Y043521D01*
X033367D01*
X033327Y043561D01*
X033367Y043601D01*
X033327D01*
X033287Y043641D01*
X033247Y043601D01*
X033207D01*
X033247Y043561D01*
X033207Y043521D01*
X033247D01*
X033287Y043481D01*
X032287D02*
X032327Y043521D01*
X032367D01*
X032327Y043561D01*
X032367Y043601D01*
X032327D01*
X032287Y043641D01*
X032247Y043601D01*
X032207D01*
X032247Y043561D01*
X032207Y043521D01*
X032247D01*
X032287Y043481D01*
X03851Y05171D02*
X03855Y05179D01*
X03851Y05187D01*
X03859Y05183D01*
X03867Y05187D01*
X03863Y05179D01*
X03867Y05171D01*
X03859Y05175D01*
X03851Y05171D01*
Y05071D02*
X03855Y05079D01*
X03851Y05087D01*
X03859Y05083D01*
X03867Y05087D01*
X03863Y05079D01*
X03867Y05071D01*
X03859Y05075D01*
X03851Y05071D01*
Y04971D02*
X03855Y04979D01*
X03851Y04987D01*
X03859Y04983D01*
X03867Y04987D01*
X03863Y04979D01*
X03867Y04971D01*
X03859Y04975D01*
X03851Y04971D01*
Y04871D02*
X03855Y04879D01*
X03851Y04887D01*
X03859Y04883D01*
X03867Y04887D01*
X03863Y04879D01*
X03867Y04871D01*
X03859Y04875D01*
X03851Y04871D01*
Y04771D02*
X03855Y04779D01*
X03851Y04787D01*
X03859Y04783D01*
X03867Y04787D01*
X03863Y04779D01*
X03867Y04771D01*
X03859Y04775D01*
X03851Y04771D01*
Y04671D02*
X03855Y04679D01*
X03851Y04687D01*
X03859Y04683D01*
X03867Y04687D01*
X03863Y04679D01*
X03867Y04671D01*
X03859Y04675D01*
X03851Y04671D01*
Y04571D02*
X03855Y04579D01*
X03851Y04587D01*
X03859Y04583D01*
X03867Y04587D01*
X03863Y04579D01*
X03867Y04571D01*
X03859Y04575D01*
X03851Y04571D01*
Y04471D02*
X03855Y04479D01*
X03851Y04487D01*
X03859Y04483D01*
X03867Y04487D01*
X03863Y04479D01*
X03867Y04471D01*
X03859Y04475D01*
X03851Y04471D01*
Y04371D02*
X03855Y04379D01*
X03851Y04387D01*
X03859Y04383D01*
X03867Y04387D01*
X03863Y04379D01*
X03867Y04371D01*
X03859Y04375D01*
X03851Y04371D01*
Y04271D02*
X03855Y04279D01*
X03851Y04287D01*
X03859Y04283D01*
X03867Y04287D01*
X03863Y04279D01*
X03867Y04271D01*
X03859Y04275D01*
X03851Y04271D01*
Y04171D02*
X03855Y04179D01*
X03851Y04187D01*
X03859Y04183D01*
X03867Y04187D01*
X03863Y04179D01*
X03867Y04171D01*
X03859Y04175D01*
X03851Y04171D01*
Y04071D02*
X03855Y04079D01*
X03851Y04087D01*
X03859Y04083D01*
X03867Y04087D01*
X03863Y04079D01*
X03867Y04071D01*
X03859Y04075D01*
X03851Y04071D01*
Y03971D02*
X03855Y03979D01*
X03851Y03987D01*
X03859Y03983D01*
X03867Y03987D01*
X03863Y03979D01*
X03867Y03971D01*
X03859Y03975D01*
X03851Y03971D01*
Y03871D02*
X03855Y03879D01*
X03851Y03887D01*
X03859Y03883D01*
X03867Y03887D01*
X03863Y03879D01*
X03867Y03871D01*
X03859Y03875D01*
X03851Y03871D01*
Y03771D02*
X03855Y03779D01*
X03851Y03787D01*
X03859Y03783D01*
X03867Y03787D01*
X03863Y03779D01*
X03867Y03771D01*
X03859Y03775D01*
X03851Y03771D01*
Y03671D02*
X03855Y03679D01*
X03851Y03687D01*
X03859Y03683D01*
X03867Y03687D01*
X03863Y03679D01*
X03867Y03671D01*
X03859Y03675D01*
X03851Y03671D01*
Y03571D02*
X03855Y03579D01*
X03851Y03587D01*
X03859Y03583D01*
X03867Y03587D01*
X03863Y03579D01*
X03867Y03571D01*
X03859Y03575D01*
X03851Y03571D01*
Y03471D02*
X03855Y03479D01*
X03851Y03487D01*
X03859Y03483D01*
X03867Y03487D01*
X03863Y03479D01*
X03867Y03471D01*
X03859Y03475D01*
X03851Y03471D01*
Y03371D02*
X03855Y03379D01*
X03851Y03387D01*
X03859Y03383D01*
X03867Y03387D01*
X03863Y03379D01*
X03867Y03371D01*
X03859Y03375D01*
X03851Y03371D01*
Y03271D02*
X03855Y03279D01*
X03851Y03287D01*
X03859Y03283D01*
X03867Y03287D01*
X03863Y03279D01*
X03867Y03271D01*
X03859Y03275D01*
X03851Y03271D01*
X03951Y05171D02*
X03955Y05179D01*
X03951Y05187D01*
X03959Y05183D01*
X03967Y05187D01*
X03963Y05179D01*
X03967Y05171D01*
X03959Y05175D01*
X03951Y05171D01*
Y05071D02*
X03955Y05079D01*
X03951Y05087D01*
X03959Y05083D01*
X03967Y05087D01*
X03963Y05079D01*
X03967Y05071D01*
X03959Y05075D01*
X03951Y05071D01*
Y04971D02*
X03955Y04979D01*
X03951Y04987D01*
X03959Y04983D01*
X03967Y04987D01*
X03963Y04979D01*
X03967Y04971D01*
X03959Y04975D01*
X03951Y04971D01*
Y04871D02*
X03955Y04879D01*
X03951Y04887D01*
X03959Y04883D01*
X03967Y04887D01*
X03963Y04879D01*
X03967Y04871D01*
X03959Y04875D01*
X03951Y04871D01*
Y04771D02*
X03955Y04779D01*
X03951Y04787D01*
X03959Y04783D01*
X03967Y04787D01*
X03963Y04779D01*
X03967Y04771D01*
X03959Y04775D01*
X03951Y04771D01*
Y04671D02*
X03955Y04679D01*
X03951Y04687D01*
X03959Y04683D01*
X03967Y04687D01*
X03963Y04679D01*
X03967Y04671D01*
X03959Y04675D01*
X03951Y04671D01*
Y04571D02*
X03955Y04579D01*
X03951Y04587D01*
X03959Y04583D01*
X03967Y04587D01*
X03963Y04579D01*
X03967Y04571D01*
X03959Y04575D01*
X03951Y04571D01*
Y04471D02*
X03955Y04479D01*
X03951Y04487D01*
X03959Y04483D01*
X03967Y04487D01*
X03963Y04479D01*
X03967Y04471D01*
X03959Y04475D01*
X03951Y04471D01*
Y04371D02*
X03955Y04379D01*
X03951Y04387D01*
X03959Y04383D01*
X03967Y04387D01*
X03963Y04379D01*
X03967Y04371D01*
X03959Y04375D01*
X03951Y04371D01*
Y04271D02*
X03955Y04279D01*
X03951Y04287D01*
X03959Y04283D01*
X03967Y04287D01*
X03963Y04279D01*
X03967Y04271D01*
X03959Y04275D01*
X03951Y04271D01*
Y04171D02*
X03955Y04179D01*
X03951Y04187D01*
X03959Y04183D01*
X03967Y04187D01*
X03963Y04179D01*
X03967Y04171D01*
X03959Y04175D01*
X03951Y04171D01*
Y04071D02*
X03955Y04079D01*
X03951Y04087D01*
X03959Y04083D01*
X03967Y04087D01*
X03963Y04079D01*
X03967Y04071D01*
X03959Y04075D01*
X03951Y04071D01*
Y03971D02*
X03955Y03979D01*
X03951Y03987D01*
X03959Y03983D01*
X03967Y03987D01*
X03963Y03979D01*
X03967Y03971D01*
X03959Y03975D01*
X03951Y03971D01*
Y03871D02*
X03955Y03879D01*
X03951Y03887D01*
X03959Y03883D01*
X03967Y03887D01*
X03963Y03879D01*
X03967Y03871D01*
X03959Y03875D01*
X03951Y03871D01*
Y03771D02*
X03955Y03779D01*
X03951Y03787D01*
X03959Y03783D01*
X03967Y03787D01*
X03963Y03779D01*
X03967Y03771D01*
X03959Y03775D01*
X03951Y03771D01*
Y03671D02*
X03955Y03679D01*
X03951Y03687D01*
X03959Y03683D01*
X03967Y03687D01*
X03963Y03679D01*
X03967Y03671D01*
X03959Y03675D01*
X03951Y03671D01*
Y03571D02*
X03955Y03579D01*
X03951Y03587D01*
X03959Y03583D01*
X03967Y03587D01*
X03963Y03579D01*
X03967Y03571D01*
X03959Y03575D01*
X03951Y03571D01*
Y03471D02*
X03955Y03479D01*
X03951Y03487D01*
X03959Y03483D01*
X03967Y03487D01*
X03963Y03479D01*
X03967Y03471D01*
X03959Y03475D01*
X03951Y03471D01*
Y03371D02*
X03955Y03379D01*
X03951Y03387D01*
X03959Y03383D01*
X03967Y03387D01*
X03963Y03379D01*
X03967Y03371D01*
X03959Y03375D01*
X03951Y03371D01*
Y03271D02*
X03955Y03279D01*
X03951Y03287D01*
X03959Y03283D01*
X03967Y03287D01*
X03963Y03279D01*
X03967Y03271D01*
X03959Y03275D01*
X03951Y03271D01*
X03953Y03028D02*
X03957Y03036D01*
X03953Y03044D01*
X03961Y0304D01*
X03969Y03044D01*
X03965Y03036D01*
X03969Y03028D01*
X03961Y03032D01*
X03953Y03028D01*
Y02928D02*
X03957Y02936D01*
X03953Y02944D01*
X03961Y0294D01*
X03969Y02944D01*
X03965Y02936D01*
X03969Y02928D01*
X03961Y02932D01*
X03953Y02928D01*
Y02828D02*
X03957Y02836D01*
X03953Y02844D01*
X03961Y0284D01*
X03969Y02844D01*
X03965Y02836D01*
X03969Y02828D01*
X03961Y02832D01*
X03953Y02828D01*
Y02728D02*
X03957Y02736D01*
X03953Y02744D01*
X03961Y0274D01*
X03969Y02744D01*
X03965Y02736D01*
X03969Y02728D01*
X03961Y02732D01*
X03953Y02728D01*
Y02628D02*
X03957Y02636D01*
X03953Y02644D01*
X03961Y0264D01*
X03969Y02644D01*
X03965Y02636D01*
X03969Y02628D01*
X03961Y02632D01*
X03953Y02628D01*
Y02528D02*
X03957Y02536D01*
X03953Y02544D01*
X03961Y0254D01*
X03969Y02544D01*
X03965Y02536D01*
X03969Y02528D01*
X03961Y02532D01*
X03953Y02528D01*
Y02428D02*
X03957Y02436D01*
X03953Y02444D01*
X03961Y0244D01*
X03969Y02444D01*
X03965Y02436D01*
X03969Y02428D01*
X03961Y02432D01*
X03953Y02428D01*
Y02328D02*
X03957Y02336D01*
X03953Y02344D01*
X03961Y0234D01*
X03969Y02344D01*
X03965Y02336D01*
X03969Y02328D01*
X03961Y02332D01*
X03953Y02328D01*
Y02228D02*
X03957Y02236D01*
X03953Y02244D01*
X03961Y0224D01*
X03969Y02244D01*
X03965Y02236D01*
X03969Y02228D01*
X03961Y02232D01*
X03953Y02228D01*
Y02128D02*
X03957Y02136D01*
X03953Y02144D01*
X03961Y0214D01*
X03969Y02144D01*
X03965Y02136D01*
X03969Y02128D01*
X03961Y02132D01*
X03953Y02128D01*
Y02028D02*
X03957Y02036D01*
X03953Y02044D01*
X03961Y0204D01*
X03969Y02044D01*
X03965Y02036D01*
X03969Y02028D01*
X03961Y02032D01*
X03953Y02028D01*
Y01928D02*
X03957Y01936D01*
X03953Y01944D01*
X03961Y0194D01*
X03969Y01944D01*
X03965Y01936D01*
X03969Y01928D01*
X03961Y01932D01*
X03953Y01928D01*
Y01828D02*
X03957Y01836D01*
X03953Y01844D01*
X03961Y0184D01*
X03969Y01844D01*
X03965Y01836D01*
X03969Y01828D01*
X03961Y01832D01*
X03953Y01828D01*
Y01728D02*
X03957Y01736D01*
X03953Y01744D01*
X03961Y0174D01*
X03969Y01744D01*
X03965Y01736D01*
X03969Y01728D01*
X03961Y01732D01*
X03953Y01728D01*
Y01628D02*
X03957Y01636D01*
X03953Y01644D01*
X03961Y0164D01*
X03969Y01644D01*
X03965Y01636D01*
X03969Y01628D01*
X03961Y01632D01*
X03953Y01628D01*
Y01528D02*
X03957Y01536D01*
X03953Y01544D01*
X03961Y0154D01*
X03969Y01544D01*
X03965Y01536D01*
X03969Y01528D01*
X03961Y01532D01*
X03953Y01528D01*
Y01428D02*
X03957Y01436D01*
X03953Y01444D01*
X03961Y0144D01*
X03969Y01444D01*
X03965Y01436D01*
X03969Y01428D01*
X03961Y01432D01*
X03953Y01428D01*
Y01328D02*
X03957Y01336D01*
X03953Y01344D01*
X03961Y0134D01*
X03969Y01344D01*
X03965Y01336D01*
X03969Y01328D01*
X03961Y01332D01*
X03953Y01328D01*
Y01228D02*
X03957Y01236D01*
X03953Y01244D01*
X03961Y0124D01*
X03969Y01244D01*
X03965Y01236D01*
X03969Y01228D01*
X03961Y01232D01*
X03953Y01228D01*
Y01128D02*
X03957Y01136D01*
X03953Y01144D01*
X03961Y0114D01*
X03969Y01144D01*
X03965Y01136D01*
X03969Y01128D01*
X03961Y01132D01*
X03953Y01128D01*
X03853Y03028D02*
X03857Y03036D01*
X03853Y03044D01*
X03861Y0304D01*
X03869Y03044D01*
X03865Y03036D01*
X03869Y03028D01*
X03861Y03032D01*
X03853Y03028D01*
Y02928D02*
X03857Y02936D01*
X03853Y02944D01*
X03861Y0294D01*
X03869Y02944D01*
X03865Y02936D01*
X03869Y02928D01*
X03861Y02932D01*
X03853Y02928D01*
Y02828D02*
X03857Y02836D01*
X03853Y02844D01*
X03861Y0284D01*
X03869Y02844D01*
X03865Y02836D01*
X03869Y02828D01*
X03861Y02832D01*
X03853Y02828D01*
Y02728D02*
X03857Y02736D01*
X03853Y02744D01*
X03861Y0274D01*
X03869Y02744D01*
X03865Y02736D01*
X03869Y02728D01*
X03861Y02732D01*
X03853Y02728D01*
Y02628D02*
X03857Y02636D01*
X03853Y02644D01*
X03861Y0264D01*
X03869Y02644D01*
X03865Y02636D01*
X03869Y02628D01*
X03861Y02632D01*
X03853Y02628D01*
Y02528D02*
X03857Y02536D01*
X03853Y02544D01*
X03861Y0254D01*
X03869Y02544D01*
X03865Y02536D01*
X03869Y02528D01*
X03861Y02532D01*
X03853Y02528D01*
Y02428D02*
X03857Y02436D01*
X03853Y02444D01*
X03861Y0244D01*
X03869Y02444D01*
X03865Y02436D01*
X03869Y02428D01*
X03861Y02432D01*
X03853Y02428D01*
Y02328D02*
X03857Y02336D01*
X03853Y02344D01*
X03861Y0234D01*
X03869Y02344D01*
X03865Y02336D01*
X03869Y02328D01*
X03861Y02332D01*
X03853Y02328D01*
Y02228D02*
X03857Y02236D01*
X03853Y02244D01*
X03861Y0224D01*
X03869Y02244D01*
X03865Y02236D01*
X03869Y02228D01*
X03861Y02232D01*
X03853Y02228D01*
Y02128D02*
X03857Y02136D01*
X03853Y02144D01*
X03861Y0214D01*
X03869Y02144D01*
X03865Y02136D01*
X03869Y02128D01*
X03861Y02132D01*
X03853Y02128D01*
Y02028D02*
X03857Y02036D01*
X03853Y02044D01*
X03861Y0204D01*
X03869Y02044D01*
X03865Y02036D01*
X03869Y02028D01*
X03861Y02032D01*
X03853Y02028D01*
Y01928D02*
X03857Y01936D01*
X03853Y01944D01*
X03861Y0194D01*
X03869Y01944D01*
X03865Y01936D01*
X03869Y01928D01*
X03861Y01932D01*
X03853Y01928D01*
Y01828D02*
X03857Y01836D01*
X03853Y01844D01*
X03861Y0184D01*
X03869Y01844D01*
X03865Y01836D01*
X03869Y01828D01*
X03861Y01832D01*
X03853Y01828D01*
Y01728D02*
X03857Y01736D01*
X03853Y01744D01*
X03861Y0174D01*
X03869Y01744D01*
X03865Y01736D01*
X03869Y01728D01*
X03861Y01732D01*
X03853Y01728D01*
Y01628D02*
X03857Y01636D01*
X03853Y01644D01*
X03861Y0164D01*
X03869Y01644D01*
X03865Y01636D01*
X03869Y01628D01*
X03861Y01632D01*
X03853Y01628D01*
Y01528D02*
X03857Y01536D01*
X03853Y01544D01*
X03861Y0154D01*
X03869Y01544D01*
X03865Y01536D01*
X03869Y01528D01*
X03861Y01532D01*
X03853Y01528D01*
Y01428D02*
X03857Y01436D01*
X03853Y01444D01*
X03861Y0144D01*
X03869Y01444D01*
X03865Y01436D01*
X03869Y01428D01*
X03861Y01432D01*
X03853Y01428D01*
Y01328D02*
X03857Y01336D01*
X03853Y01344D01*
X03861Y0134D01*
X03869Y01344D01*
X03865Y01336D01*
X03869Y01328D01*
X03861Y01332D01*
X03853Y01328D01*
Y01228D02*
X03857Y01236D01*
X03853Y01244D01*
X03861Y0124D01*
X03869Y01244D01*
X03865Y01236D01*
X03869Y01228D01*
X03861Y01232D01*
X03853Y01228D01*
Y01128D02*
X03857Y01136D01*
X03853Y01144D01*
X03861Y0114D01*
X03869Y01144D01*
X03865Y01136D01*
X03869Y01128D01*
X03861Y01132D01*
X03853Y01128D01*
X01132Y03271D02*
X01136Y03279D01*
X01132Y03287D01*
X0114Y03283D01*
X01148Y03287D01*
X01144Y03279D01*
X01148Y03271D01*
X0114Y03275D01*
X01132Y03271D01*
Y03371D02*
X01136Y03379D01*
X01132Y03387D01*
X0114Y03383D01*
X01148Y03387D01*
X01144Y03379D01*
X01148Y03371D01*
X0114Y03375D01*
X01132Y03371D01*
Y03471D02*
X01136Y03479D01*
X01132Y03487D01*
X0114Y03483D01*
X01148Y03487D01*
X01144Y03479D01*
X01148Y03471D01*
X0114Y03475D01*
X01132Y03471D01*
Y03571D02*
X01136Y03579D01*
X01132Y03587D01*
X0114Y03583D01*
X01148Y03587D01*
X01144Y03579D01*
X01148Y03571D01*
X0114Y03575D01*
X01132Y03571D01*
Y03671D02*
X01136Y03679D01*
X01132Y03687D01*
X0114Y03683D01*
X01148Y03687D01*
X01144Y03679D01*
X01148Y03671D01*
X0114Y03675D01*
X01132Y03671D01*
Y03771D02*
X01136Y03779D01*
X01132Y03787D01*
X0114Y03783D01*
X01148Y03787D01*
X01144Y03779D01*
X01148Y03771D01*
X0114Y03775D01*
X01132Y03771D01*
Y03871D02*
X01136Y03879D01*
X01132Y03887D01*
X0114Y03883D01*
X01148Y03887D01*
X01144Y03879D01*
X01148Y03871D01*
X0114Y03875D01*
X01132Y03871D01*
Y03971D02*
X01136Y03979D01*
X01132Y03987D01*
X0114Y03983D01*
X01148Y03987D01*
X01144Y03979D01*
X01148Y03971D01*
X0114Y03975D01*
X01132Y03971D01*
Y04071D02*
X01136Y04079D01*
X01132Y04087D01*
X0114Y04083D01*
X01148Y04087D01*
X01144Y04079D01*
X01148Y04071D01*
X0114Y04075D01*
X01132Y04071D01*
Y04171D02*
X01136Y04179D01*
X01132Y04187D01*
X0114Y04183D01*
X01148Y04187D01*
X01144Y04179D01*
X01148Y04171D01*
X0114Y04175D01*
X01132Y04171D01*
Y04271D02*
X01136Y04279D01*
X01132Y04287D01*
X0114Y04283D01*
X01148Y04287D01*
X01144Y04279D01*
X01148Y04271D01*
X0114Y04275D01*
X01132Y04271D01*
Y04371D02*
X01136Y04379D01*
X01132Y04387D01*
X0114Y04383D01*
X01148Y04387D01*
X01144Y04379D01*
X01148Y04371D01*
X0114Y04375D01*
X01132Y04371D01*
Y04471D02*
X01136Y04479D01*
X01132Y04487D01*
X0114Y04483D01*
X01148Y04487D01*
X01144Y04479D01*
X01148Y04471D01*
X0114Y04475D01*
X01132Y04471D01*
Y04571D02*
X01136Y04579D01*
X01132Y04587D01*
X0114Y04583D01*
X01148Y04587D01*
X01144Y04579D01*
X01148Y04571D01*
X0114Y04575D01*
X01132Y04571D01*
Y04671D02*
X01136Y04679D01*
X01132Y04687D01*
X0114Y04683D01*
X01148Y04687D01*
X01144Y04679D01*
X01148Y04671D01*
X0114Y04675D01*
X01132Y04671D01*
Y04771D02*
X01136Y04779D01*
X01132Y04787D01*
X0114Y04783D01*
X01148Y04787D01*
X01144Y04779D01*
X01148Y04771D01*
X0114Y04775D01*
X01132Y04771D01*
Y04871D02*
X01136Y04879D01*
X01132Y04887D01*
X0114Y04883D01*
X01148Y04887D01*
X01144Y04879D01*
X01148Y04871D01*
X0114Y04875D01*
X01132Y04871D01*
Y04971D02*
X01136Y04979D01*
X01132Y04987D01*
X0114Y04983D01*
X01148Y04987D01*
X01144Y04979D01*
X01148Y04971D01*
X0114Y04975D01*
X01132Y04971D01*
Y05071D02*
X01136Y05079D01*
X01132Y05087D01*
X0114Y05083D01*
X01148Y05087D01*
X01144Y05079D01*
X01148Y05071D01*
X0114Y05075D01*
X01132Y05071D01*
Y05171D02*
X01136Y05179D01*
X01132Y05187D01*
X0114Y05183D01*
X01148Y05187D01*
X01144Y05179D01*
X01148Y05171D01*
X0114Y05175D01*
X01132Y05171D01*
X01232Y03271D02*
X01236Y03279D01*
X01232Y03287D01*
X0124Y03283D01*
X01248Y03287D01*
X01244Y03279D01*
X01248Y03271D01*
X0124Y03275D01*
X01232Y03271D01*
Y03371D02*
X01236Y03379D01*
X01232Y03387D01*
X0124Y03383D01*
X01248Y03387D01*
X01244Y03379D01*
X01248Y03371D01*
X0124Y03375D01*
X01232Y03371D01*
Y03471D02*
X01236Y03479D01*
X01232Y03487D01*
X0124Y03483D01*
X01248Y03487D01*
X01244Y03479D01*
X01248Y03471D01*
X0124Y03475D01*
X01232Y03471D01*
Y03571D02*
X01236Y03579D01*
X01232Y03587D01*
X0124Y03583D01*
X01248Y03587D01*
X01244Y03579D01*
X01248Y03571D01*
X0124Y03575D01*
X01232Y03571D01*
Y03671D02*
X01236Y03679D01*
X01232Y03687D01*
X0124Y03683D01*
X01248Y03687D01*
X01244Y03679D01*
X01248Y03671D01*
X0124Y03675D01*
X01232Y03671D01*
Y03771D02*
X01236Y03779D01*
X01232Y03787D01*
X0124Y03783D01*
X01248Y03787D01*
X01244Y03779D01*
X01248Y03771D01*
X0124Y03775D01*
X01232Y03771D01*
Y03871D02*
X01236Y03879D01*
X01232Y03887D01*
X0124Y03883D01*
X01248Y03887D01*
X01244Y03879D01*
X01248Y03871D01*
X0124Y03875D01*
X01232Y03871D01*
Y03971D02*
X01236Y03979D01*
X01232Y03987D01*
X0124Y03983D01*
X01248Y03987D01*
X01244Y03979D01*
X01248Y03971D01*
X0124Y03975D01*
X01232Y03971D01*
Y04071D02*
X01236Y04079D01*
X01232Y04087D01*
X0124Y04083D01*
X01248Y04087D01*
X01244Y04079D01*
X01248Y04071D01*
X0124Y04075D01*
X01232Y04071D01*
Y04171D02*
X01236Y04179D01*
X01232Y04187D01*
X0124Y04183D01*
X01248Y04187D01*
X01244Y04179D01*
X01248Y04171D01*
X0124Y04175D01*
X01232Y04171D01*
Y04271D02*
X01236Y04279D01*
X01232Y04287D01*
X0124Y04283D01*
X01248Y04287D01*
X01244Y04279D01*
X01248Y04271D01*
X0124Y04275D01*
X01232Y04271D01*
Y04371D02*
X01236Y04379D01*
X01232Y04387D01*
X0124Y04383D01*
X01248Y04387D01*
X01244Y04379D01*
X01248Y04371D01*
X0124Y04375D01*
X01232Y04371D01*
Y04471D02*
X01236Y04479D01*
X01232Y04487D01*
X0124Y04483D01*
X01248Y04487D01*
X01244Y04479D01*
X01248Y04471D01*
X0124Y04475D01*
X01232Y04471D01*
Y04571D02*
X01236Y04579D01*
X01232Y04587D01*
X0124Y04583D01*
X01248Y04587D01*
X01244Y04579D01*
X01248Y04571D01*
X0124Y04575D01*
X01232Y04571D01*
Y04671D02*
X01236Y04679D01*
X01232Y04687D01*
X0124Y04683D01*
X01248Y04687D01*
X01244Y04679D01*
X01248Y04671D01*
X0124Y04675D01*
X01232Y04671D01*
Y04771D02*
X01236Y04779D01*
X01232Y04787D01*
X0124Y04783D01*
X01248Y04787D01*
X01244Y04779D01*
X01248Y04771D01*
X0124Y04775D01*
X01232Y04771D01*
Y04871D02*
X01236Y04879D01*
X01232Y04887D01*
X0124Y04883D01*
X01248Y04887D01*
X01244Y04879D01*
X01248Y04871D01*
X0124Y04875D01*
X01232Y04871D01*
Y04971D02*
X01236Y04979D01*
X01232Y04987D01*
X0124Y04983D01*
X01248Y04987D01*
X01244Y04979D01*
X01248Y04971D01*
X0124Y04975D01*
X01232Y04971D01*
Y05071D02*
X01236Y05079D01*
X01232Y05087D01*
X0124Y05083D01*
X01248Y05087D01*
X01244Y05079D01*
X01248Y05071D01*
X0124Y05075D01*
X01232Y05071D01*
Y05171D02*
X01236Y05179D01*
X01232Y05187D01*
X0124Y05183D01*
X01248Y05187D01*
X01244Y05179D01*
X01248Y05171D01*
X0124Y05175D01*
X01232Y05171D01*
X01237Y01128D02*
X01241Y01136D01*
X01237Y01144D01*
X01245Y0114D01*
X01253Y01144D01*
X01249Y01136D01*
X01253Y01128D01*
X01245Y01132D01*
X01237Y01128D01*
X01237Y01228D02*
X01241Y01236D01*
X01237Y01244D01*
X01245Y0124D01*
X01253Y01244D01*
X01249Y01236D01*
X01253Y01228D01*
X01245Y01232D01*
X01237Y01228D01*
Y01328D02*
X01241Y01336D01*
X01237Y01344D01*
X01245Y0134D01*
X01253Y01344D01*
X01249Y01336D01*
X01253Y01328D01*
X01245Y01332D01*
X01237Y01328D01*
Y01428D02*
X01241Y01436D01*
X01237Y01444D01*
X01245Y0144D01*
X01253Y01444D01*
X01249Y01436D01*
X01253Y01428D01*
X01245Y01432D01*
X01237Y01428D01*
X01237Y01528D02*
X01241Y01536D01*
X01237Y01544D01*
X01245Y0154D01*
X01253Y01544D01*
X01249Y01536D01*
X01253Y01528D01*
X01245Y01532D01*
X01237Y01528D01*
Y01628D02*
X01241Y01636D01*
X01237Y01644D01*
X01245Y0164D01*
X01253Y01644D01*
X01249Y01636D01*
X01253Y01628D01*
X01245Y01632D01*
X01237Y01628D01*
X01237Y01728D02*
X01241Y01736D01*
X01237Y01744D01*
X01245Y0174D01*
X01253Y01744D01*
X01249Y01736D01*
X01253Y01728D01*
X01245Y01732D01*
X01237Y01728D01*
Y01828D02*
X01241Y01836D01*
X01237Y01844D01*
X01245Y0184D01*
X01253Y01844D01*
X01249Y01836D01*
X01253Y01828D01*
X01245Y01832D01*
X01237Y01828D01*
Y01928D02*
X01241Y01936D01*
X01237Y01944D01*
X01245Y0194D01*
X01253Y01944D01*
X01249Y01936D01*
X01253Y01928D01*
X01245Y01932D01*
X01237Y01928D01*
X01237Y02028D02*
X01241Y02036D01*
X01237Y02044D01*
X01245Y0204D01*
X01253Y02044D01*
X01249Y02036D01*
X01253Y02028D01*
X01245Y02032D01*
X01237Y02028D01*
X01237Y02128D02*
X01241Y02136D01*
X01237Y02144D01*
X01245Y0214D01*
X01253Y02144D01*
X01249Y02136D01*
X01253Y02128D01*
X01245Y02132D01*
X01237Y02128D01*
Y02228D02*
X01241Y02236D01*
X01237Y02244D01*
X01245Y0224D01*
X01253Y02244D01*
X01249Y02236D01*
X01253Y02228D01*
X01245Y02232D01*
X01237Y02228D01*
Y02328D02*
X01241Y02336D01*
X01237Y02344D01*
X01245Y0234D01*
X01253Y02344D01*
X01249Y02336D01*
X01253Y02328D01*
X01245Y02332D01*
X01237Y02328D01*
X01237Y02428D02*
X01241Y02436D01*
X01237Y02444D01*
X01245Y0244D01*
X01253Y02444D01*
X01249Y02436D01*
X01253Y02428D01*
X01245Y02432D01*
X01237Y02428D01*
Y02528D02*
X01241Y02536D01*
X01237Y02544D01*
X01245Y0254D01*
X01253Y02544D01*
X01249Y02536D01*
X01253Y02528D01*
X01245Y02532D01*
X01237Y02528D01*
X01237Y02628D02*
X01241Y02636D01*
X01237Y02644D01*
X01245Y0264D01*
X01253Y02644D01*
X01249Y02636D01*
X01253Y02628D01*
X01245Y02632D01*
X01237Y02628D01*
Y02728D02*
X01241Y02736D01*
X01237Y02744D01*
X01245Y0274D01*
X01253Y02744D01*
X01249Y02736D01*
X01253Y02728D01*
X01245Y02732D01*
X01237Y02728D01*
Y02828D02*
X01241Y02836D01*
X01237Y02844D01*
X01245Y0284D01*
X01253Y02844D01*
X01249Y02836D01*
X01253Y02828D01*
X01245Y02832D01*
X01237Y02828D01*
X01237Y02928D02*
X01241Y02936D01*
X01237Y02944D01*
X01245Y0294D01*
X01253Y02944D01*
X01249Y02936D01*
X01253Y02928D01*
X01245Y02932D01*
X01237Y02928D01*
X01237Y03028D02*
X01241Y03036D01*
X01237Y03044D01*
X01245Y0304D01*
X01253Y03044D01*
X01249Y03036D01*
X01253Y03028D01*
X01245Y03032D01*
X01237Y03028D01*
X01137Y01128D02*
X01141Y01136D01*
X01137Y01144D01*
X01145Y0114D01*
X01153Y01144D01*
X01149Y01136D01*
X01153Y01128D01*
X01145Y01132D01*
X01137Y01128D01*
Y01228D02*
X01141Y01236D01*
X01137Y01244D01*
X01145Y0124D01*
X01153Y01244D01*
X01149Y01236D01*
X01153Y01228D01*
X01145Y01232D01*
X01137Y01228D01*
Y01328D02*
X01141Y01336D01*
X01137Y01344D01*
X01145Y0134D01*
X01153Y01344D01*
X01149Y01336D01*
X01153Y01328D01*
X01145Y01332D01*
X01137Y01328D01*
Y01428D02*
X01141Y01436D01*
X01137Y01444D01*
X01145Y0144D01*
X01153Y01444D01*
X01149Y01436D01*
X01153Y01428D01*
X01145Y01432D01*
X01137Y01428D01*
Y01528D02*
X01141Y01536D01*
X01137Y01544D01*
X01145Y0154D01*
X01153Y01544D01*
X01149Y01536D01*
X01153Y01528D01*
X01145Y01532D01*
X01137Y01528D01*
Y01628D02*
X01141Y01636D01*
X01137Y01644D01*
X01145Y0164D01*
X01153Y01644D01*
X01149Y01636D01*
X01153Y01628D01*
X01145Y01632D01*
X01137Y01628D01*
Y01728D02*
X01141Y01736D01*
X01137Y01744D01*
X01145Y0174D01*
X01153Y01744D01*
X01149Y01736D01*
X01153Y01728D01*
X01145Y01732D01*
X01137Y01728D01*
Y01828D02*
X01141Y01836D01*
X01137Y01844D01*
X01145Y0184D01*
X01153Y01844D01*
X01149Y01836D01*
X01153Y01828D01*
X01145Y01832D01*
X01137Y01828D01*
Y01928D02*
X01141Y01936D01*
X01137Y01944D01*
X01145Y0194D01*
X01153Y01944D01*
X01149Y01936D01*
X01153Y01928D01*
X01145Y01932D01*
X01137Y01928D01*
Y02028D02*
X01141Y02036D01*
X01137Y02044D01*
X01145Y0204D01*
X01153Y02044D01*
X01149Y02036D01*
X01153Y02028D01*
X01145Y02032D01*
X01137Y02028D01*
Y02128D02*
X01141Y02136D01*
X01137Y02144D01*
X01145Y0214D01*
X01153Y02144D01*
X01149Y02136D01*
X01153Y02128D01*
X01145Y02132D01*
X01137Y02128D01*
Y02228D02*
X01141Y02236D01*
X01137Y02244D01*
X01145Y0224D01*
X01153Y02244D01*
X01149Y02236D01*
X01153Y02228D01*
X01145Y02232D01*
X01137Y02228D01*
Y02328D02*
X01141Y02336D01*
X01137Y02344D01*
X01145Y0234D01*
X01153Y02344D01*
X01149Y02336D01*
X01153Y02328D01*
X01145Y02332D01*
X01137Y02328D01*
Y02428D02*
X01141Y02436D01*
X01137Y02444D01*
X01145Y0244D01*
X01153Y02444D01*
X01149Y02436D01*
X01153Y02428D01*
X01145Y02432D01*
X01137Y02428D01*
Y02528D02*
X01141Y02536D01*
X01137Y02544D01*
X01145Y0254D01*
X01153Y02544D01*
X01149Y02536D01*
X01153Y02528D01*
X01145Y02532D01*
X01137Y02528D01*
Y02628D02*
X01141Y02636D01*
X01137Y02644D01*
X01145Y0264D01*
X01153Y02644D01*
X01149Y02636D01*
X01153Y02628D01*
X01145Y02632D01*
X01137Y02628D01*
Y02728D02*
X01141Y02736D01*
X01137Y02744D01*
X01145Y0274D01*
X01153Y02744D01*
X01149Y02736D01*
X01153Y02728D01*
X01145Y02732D01*
X01137Y02728D01*
Y02828D02*
X01141Y02836D01*
X01137Y02844D01*
X01145Y0284D01*
X01153Y02844D01*
X01149Y02836D01*
X01153Y02828D01*
X01145Y02832D01*
X01137Y02828D01*
Y02928D02*
X01141Y02936D01*
X01137Y02944D01*
X01145Y0294D01*
X01153Y02944D01*
X01149Y02936D01*
X01153Y02928D01*
X01145Y02932D01*
X01137Y02928D01*
Y03028D02*
X01141Y03036D01*
X01137Y03044D01*
X01145Y0304D01*
X01153Y03044D01*
X01149Y03036D01*
X01153Y03028D01*
X01145Y03032D01*
X01137Y03028D01*
X03453Y04059D02*
Y04055D01*
X03461D01*
Y04059D01*
X03465D01*
Y04067D01*
X03461D01*
Y04071D01*
X03453D01*
Y04067D01*
X03449D01*
Y04059D01*
X03453D01*
X03328Y04149D02*
Y04145D01*
X03336D01*
Y04149D01*
X0334D01*
Y04157D01*
X03336D01*
Y04161D01*
X03328D01*
Y04157D01*
X03324D01*
Y04149D01*
X03328D01*
X02952Y04152D02*
Y04148D01*
X0296D01*
Y04152D01*
X02964D01*
Y0416D01*
X0296D01*
Y04164D01*
X02952D01*
Y0416D01*
X02948D01*
Y04152D01*
X02952D01*
X02619Y04145D02*
Y04141D01*
X02627D01*
Y04145D01*
X02631D01*
Y04153D01*
X02627D01*
Y04157D01*
X02619D01*
Y04153D01*
X02615D01*
Y04145D01*
X02619D01*
X02763Y03767D02*
Y03763D01*
X02771D01*
Y03767D01*
X02775D01*
Y03775D01*
X02771D01*
Y03779D01*
X02763D01*
Y03775D01*
X02759D01*
Y03767D01*
X02763D01*
X027275Y046596D02*
Y046556D01*
X027355D01*
Y046596D01*
X027395D01*
Y046676D01*
X027355D01*
Y046716D01*
X027275D01*
Y046676D01*
X027235D01*
Y046596D01*
X027275D01*
X02876Y04679D02*
Y04675D01*
X02884D01*
Y04679D01*
X02888D01*
Y04687D01*
X02884D01*
Y04691D01*
X02876D01*
Y04687D01*
X02872D01*
Y04679D01*
X02876D01*
X03675Y05381D02*
Y05377D01*
X03683D01*
Y05381D01*
X03687D01*
Y05389D01*
X03683D01*
Y05393D01*
X03675D01*
Y05389D01*
X03671D01*
Y05381D01*
X03675D01*
X04031Y05401D02*
Y05397D01*
X04039D01*
Y05401D01*
X04043D01*
Y05409D01*
X04039D01*
Y05413D01*
X04031D01*
Y05409D01*
X04027D01*
Y05401D01*
X04031D01*
X03543Y0299D02*
Y02986D01*
X03551D01*
Y0299D01*
X03555D01*
Y02998D01*
X03551D01*
Y03002D01*
X03543D01*
Y02998D01*
X03539D01*
Y0299D01*
X03543D01*
X03133Y02302D02*
Y02298D01*
X03141D01*
Y02302D01*
X03145D01*
Y0231D01*
X03141D01*
Y02314D01*
X03133D01*
Y0231D01*
X03129D01*
Y02302D01*
X03133D01*
X02857Y0353D02*
Y03526D01*
X02865D01*
Y0353D01*
X02869D01*
Y03538D01*
X02865D01*
Y03542D01*
X02857D01*
Y03538D01*
X02853D01*
Y0353D01*
X02857D01*
X01837Y04657D02*
Y04653D01*
X01845D01*
Y04657D01*
X01849D01*
Y04665D01*
X01845D01*
Y04669D01*
X01837D01*
Y04665D01*
X01833D01*
Y04657D01*
X01837D01*
X0302Y04028D02*
Y04024D01*
X03028D01*
Y04028D01*
X03032D01*
Y04036D01*
X03028D01*
Y0404D01*
X0302D01*
Y04036D01*
X03016D01*
Y04028D01*
X0302D01*
X03398Y03697D02*
Y03693D01*
X03406D01*
Y03697D01*
X0341D01*
Y03705D01*
X03406D01*
Y03709D01*
X03398D01*
Y03705D01*
X03394D01*
Y03697D01*
X03398D01*
X03472Y03793D02*
Y03789D01*
X0348D01*
Y03793D01*
X03484D01*
Y03801D01*
X0348D01*
Y03805D01*
X03472D01*
Y03801D01*
X03468D01*
Y03793D01*
X03472D01*
X03333Y036195D02*
Y036155D01*
X03341D01*
Y036195D01*
X03345D01*
Y036275D01*
X03341D01*
Y036315D01*
X03333D01*
Y036275D01*
X03329D01*
Y036195D01*
X03333D01*
X03041Y03288D02*
Y03284D01*
X03049D01*
Y03288D01*
X03053D01*
Y03296D01*
X03049D01*
Y033D01*
X03041D01*
Y03296D01*
X03037D01*
Y03288D01*
X03041D01*
X02753Y03176D02*
Y03172D01*
X02761D01*
Y03176D01*
X02765D01*
Y03184D01*
X02761D01*
Y03188D01*
X02753D01*
Y03184D01*
X02749D01*
Y03176D01*
X02753D01*
X028537Y032653D02*
Y032613D01*
X028617D01*
Y032653D01*
X028657D01*
Y032733D01*
X028617D01*
Y032773D01*
X028537D01*
Y032733D01*
X028497D01*
Y032653D01*
X028537D01*
X014575Y03813D02*
Y03809D01*
X014655D01*
Y03813D01*
X014695D01*
Y03821D01*
X014655D01*
Y03825D01*
X014575D01*
Y03821D01*
X014535D01*
Y03813D01*
X014575D01*
Y0406D02*
Y04056D01*
X014655D01*
Y0406D01*
X014695D01*
Y04068D01*
X014655D01*
Y04072D01*
X014575D01*
Y04068D01*
X014535D01*
Y0406D01*
X014575D01*
Y0398D02*
Y03976D01*
X014655D01*
Y0398D01*
X014695D01*
Y03988D01*
X014655D01*
Y03992D01*
X014575D01*
Y03988D01*
X014535D01*
Y0398D01*
X014575D01*
Y03888D02*
Y03884D01*
X014655D01*
Y03888D01*
X014695D01*
Y03896D01*
X014655D01*
Y039D01*
X014575D01*
Y03896D01*
X014535D01*
Y03888D01*
X014575D01*
X01538Y03398D02*
Y03394D01*
X01546D01*
Y03398D01*
X0155D01*
Y03406D01*
X01546D01*
Y0341D01*
X01538D01*
Y03406D01*
X01534D01*
Y03398D01*
X01538D01*
X014667Y035235D02*
Y035195D01*
X014747D01*
Y035235D01*
X014787D01*
Y035315D01*
X014747D01*
Y035355D01*
X014667D01*
Y035315D01*
X014627D01*
Y035235D01*
X014667D01*
X01561Y03486D02*
Y03482D01*
X01569D01*
Y03486D01*
X01573D01*
Y03494D01*
X01569D01*
Y03498D01*
X01561D01*
Y03494D01*
X01557D01*
Y03486D01*
X01561D01*
X013525Y03529D02*
Y03525D01*
X013605D01*
Y03529D01*
X013645D01*
Y03537D01*
X013605D01*
Y03541D01*
X013525D01*
Y03537D01*
X013485D01*
Y03529D01*
X013525D01*
X01179Y041D02*
Y04096D01*
X01187D01*
Y041D01*
X01191D01*
Y04108D01*
X01187D01*
Y04112D01*
X01179D01*
Y04108D01*
X01175D01*
Y041D01*
X01179D01*
X01522Y03547D02*
Y03543D01*
X0153D01*
Y03547D01*
X01534D01*
Y03555D01*
X0153D01*
Y03559D01*
X01522D01*
Y03555D01*
X01518D01*
Y03547D01*
X01522D01*
X013005Y03623D02*
Y03619D01*
X013085D01*
Y03623D01*
X013125D01*
Y03631D01*
X013085D01*
Y03635D01*
X013005D01*
Y03631D01*
X012965D01*
Y03623D01*
X013005D01*
X02697Y02715D02*
Y02711D01*
X02705D01*
Y02715D01*
X02709D01*
Y02723D01*
X02705D01*
Y02727D01*
X02697D01*
Y02723D01*
X02693D01*
Y02715D01*
X02697D01*
X02872Y03029D02*
Y03025D01*
X0288D01*
Y03029D01*
X02884D01*
Y03037D01*
X0288D01*
Y03041D01*
X02872D01*
Y03037D01*
X02868D01*
Y03029D01*
X02872D01*
X02832Y030795D02*
Y030755D01*
X0284D01*
Y030795D01*
X02844D01*
Y030875D01*
X0284D01*
Y030915D01*
X02832D01*
Y030875D01*
X02828D01*
Y030795D01*
X02832D01*
X02617Y03547D02*
Y03543D01*
X02625D01*
Y03547D01*
X02629D01*
Y03555D01*
X02625D01*
Y03559D01*
X02617D01*
Y03555D01*
X02613D01*
Y03547D01*
X02617D01*
X02671Y03829D02*
Y03825D01*
X02679D01*
Y03829D01*
X02683D01*
Y03837D01*
X02679D01*
Y03841D01*
X02671D01*
Y03837D01*
X02667D01*
Y03829D01*
X02671D01*
X02515Y03234D02*
Y0323D01*
X02523D01*
Y03234D01*
X02527D01*
Y03242D01*
X02523D01*
Y03246D01*
X02515D01*
Y03242D01*
X02511D01*
Y03234D01*
X02515D01*
X029436Y03701D02*
Y03697D01*
X029516D01*
Y03701D01*
X029556D01*
Y03709D01*
X029516D01*
Y03713D01*
X029436D01*
Y03709D01*
X029396D01*
Y03701D01*
X029436D01*
X02944Y03973D02*
Y03969D01*
X02952D01*
Y03973D01*
X02956D01*
Y03981D01*
X02952D01*
Y03985D01*
X02944D01*
Y03981D01*
X0294D01*
Y03973D01*
X02944D01*
X02995Y04733D02*
Y04729D01*
X03003D01*
Y04733D01*
X03007D01*
Y04741D01*
X03003D01*
Y04745D01*
X02995D01*
Y04741D01*
X02991D01*
Y04733D01*
X02995D01*
X02282Y03035D02*
Y03031D01*
X0229D01*
Y03035D01*
X02294D01*
Y03043D01*
X0229D01*
Y03047D01*
X02282D01*
Y03043D01*
X02278D01*
Y03035D01*
X02282D01*
X02244D02*
Y03031D01*
X02252D01*
Y03035D01*
X02256D01*
Y03043D01*
X02252D01*
Y03047D01*
X02244D01*
Y03043D01*
X0224D01*
Y03035D01*
X02244D01*
X022683Y031093D02*
Y031053D01*
X022763D01*
Y031093D01*
X022803D01*
Y031173D01*
X022763D01*
Y031213D01*
X022683D01*
Y031173D01*
X022643D01*
Y031093D01*
X022683D01*
X01383Y04712D02*
Y04708D01*
X01391D01*
Y04712D01*
X01395D01*
Y0472D01*
X01391D01*
Y04724D01*
X01383D01*
Y0472D01*
X01379D01*
Y04712D01*
X01383D01*
X01514Y04154D02*
Y0415D01*
X01522D01*
Y04154D01*
X01526D01*
Y04162D01*
X01522D01*
Y04166D01*
X01514D01*
Y04162D01*
X0151D01*
Y04154D01*
X01514D01*
X02382Y03352D02*
Y03348D01*
X0239D01*
Y03352D01*
X02394D01*
Y0336D01*
X0239D01*
Y03364D01*
X02382D01*
Y0336D01*
X02378D01*
Y03352D01*
X02382D01*
X018543Y027366D02*
Y027326D01*
X018623D01*
Y027366D01*
X018663D01*
Y027446D01*
X018623D01*
Y027486D01*
X018543D01*
Y027446D01*
X018503D01*
Y027366D01*
X018543D01*
X02507Y03389D02*
Y03385D01*
X02515D01*
Y03389D01*
X02519D01*
Y03397D01*
X02515D01*
Y03401D01*
X02507D01*
Y03397D01*
X02503D01*
Y03389D01*
X02507D01*
X025405Y034967D02*
Y034927D01*
X025485D01*
Y034967D01*
X025525D01*
Y035047D01*
X025485D01*
Y035087D01*
X025405D01*
Y035047D01*
X025365D01*
Y034967D01*
X025405D01*
X02357Y03306D02*
Y03302D01*
X02365D01*
Y03306D01*
X02369D01*
Y03314D01*
X02365D01*
Y03318D01*
X02357D01*
Y03314D01*
X02353D01*
Y03306D01*
X02357D01*
X02611Y02842D02*
Y02838D01*
X02619D01*
Y02842D01*
X02623D01*
Y0285D01*
X02619D01*
Y02854D01*
X02611D01*
Y0285D01*
X02607D01*
Y02842D01*
X02611D01*
X02542Y03168D02*
Y03164D01*
X0255D01*
Y03168D01*
X02554D01*
Y03176D01*
X0255D01*
Y0318D01*
X02542D01*
Y03176D01*
X02538D01*
Y03168D01*
X02542D01*
X02566Y03151D02*
Y03147D01*
X02574D01*
Y03151D01*
X02578D01*
Y03159D01*
X02574D01*
Y03163D01*
X02566D01*
Y03159D01*
X02562D01*
Y03151D01*
X02566D01*
X01452Y04019D02*
Y04015D01*
X0146D01*
Y04019D01*
X01464D01*
Y04027D01*
X0146D01*
Y04031D01*
X01452D01*
Y04027D01*
X01448D01*
Y04019D01*
X01452D01*
X01721Y04026D02*
Y04022D01*
X01729D01*
Y04026D01*
X01733D01*
Y04034D01*
X01729D01*
Y04038D01*
X01721D01*
Y04034D01*
X01717D01*
Y04026D01*
X01721D01*
X02134Y0382D02*
Y03816D01*
X02142D01*
Y0382D01*
X02146D01*
Y03828D01*
X02142D01*
Y03832D01*
X02134D01*
Y03828D01*
X0213D01*
Y0382D01*
X02134D01*
X01465Y03934D02*
Y0393D01*
X01473D01*
Y03934D01*
X01477D01*
Y03942D01*
X01473D01*
Y03946D01*
X01465D01*
Y03942D01*
X01461D01*
Y03934D01*
X01465D01*
X0173Y03937D02*
Y03933D01*
X01738D01*
Y03937D01*
X01742D01*
Y03945D01*
X01738D01*
Y03949D01*
X0173D01*
Y03945D01*
X01726D01*
Y03937D01*
X0173D01*
X02212Y03737D02*
Y03733D01*
X0222D01*
Y03737D01*
X02224D01*
Y03745D01*
X0222D01*
Y03749D01*
X02212D01*
Y03745D01*
X02208D01*
Y03737D01*
X02212D01*
X02343Y03964D02*
Y0396D01*
X02351D01*
Y03964D01*
X02355D01*
Y03972D01*
X02351D01*
Y03976D01*
X02343D01*
Y03972D01*
X02339D01*
Y03964D01*
X02343D01*
X02897Y03567D02*
Y03563D01*
X02905D01*
Y03567D01*
X02909D01*
Y03575D01*
X02905D01*
Y03579D01*
X02897D01*
Y03575D01*
X02893D01*
Y03567D01*
X02897D01*
X02338Y03929D02*
Y03925D01*
X02346D01*
Y03929D01*
X0235D01*
Y03937D01*
X02346D01*
Y03941D01*
X02338D01*
Y03937D01*
X02334D01*
Y03929D01*
X02338D01*
X029342Y035148D02*
Y035108D01*
X029422D01*
Y035148D01*
X029462D01*
Y035228D01*
X029422D01*
Y035268D01*
X029342D01*
Y035228D01*
X029302D01*
Y035148D01*
X029342D01*
X028236Y034354D02*
Y034314D01*
X028316D01*
Y034354D01*
X028356D01*
Y034434D01*
X028316D01*
Y034474D01*
X028236D01*
Y034434D01*
X028196D01*
Y034354D01*
X028236D01*
X02339Y03858D02*
Y03854D01*
X02347D01*
Y03858D01*
X02351D01*
Y03866D01*
X02347D01*
Y0387D01*
X02339D01*
Y03866D01*
X02335D01*
Y03858D01*
X02339D01*
X025283Y030062D02*
Y030022D01*
X025363D01*
Y030062D01*
X025403D01*
Y030142D01*
X025363D01*
Y030182D01*
X025283D01*
Y030142D01*
X025243D01*
Y030062D01*
X025283D01*
X025546Y02956D02*
Y02952D01*
X025626D01*
Y02956D01*
X025666D01*
Y02964D01*
X025626D01*
Y02968D01*
X025546D01*
Y02964D01*
X025506D01*
Y02956D01*
X025546D01*
X02268Y029935D02*
Y029895D01*
X02276D01*
Y029935D01*
X0228D01*
Y030015D01*
X02276D01*
Y030055D01*
X02268D01*
Y030015D01*
X02264D01*
Y029935D01*
X02268D01*
X02167Y02855D02*
Y02851D01*
X02175D01*
Y02855D01*
X02179D01*
Y02863D01*
X02175D01*
Y02867D01*
X02167D01*
Y02863D01*
X02163D01*
Y02855D01*
X02167D01*
X0199Y04726D02*
Y04722D01*
X01998D01*
Y04726D01*
X02002D01*
Y04734D01*
X01998D01*
Y04738D01*
X0199D01*
Y04734D01*
X01986D01*
Y04726D01*
X0199D01*
X01833Y04886D02*
Y04882D01*
X01841D01*
Y04886D01*
X01845D01*
Y04894D01*
X01841D01*
Y04898D01*
X01833D01*
Y04894D01*
X01829D01*
Y04886D01*
X01833D01*
X01049Y02473D02*
Y02469D01*
X01057D01*
Y02473D01*
X01061D01*
Y02481D01*
X01057D01*
Y02485D01*
X01049D01*
Y02481D01*
X01045D01*
Y02473D01*
X01049D01*
X03227Y03891D02*
Y03887D01*
X03235D01*
Y03891D01*
X03239D01*
Y03899D01*
X03235D01*
Y03903D01*
X03227D01*
Y03899D01*
X03223D01*
Y03891D01*
X03227D01*
X02996Y03861D02*
Y03857D01*
X03004D01*
Y03861D01*
X03008D01*
Y03869D01*
X03004D01*
Y03873D01*
X02996D01*
Y03869D01*
X02992D01*
Y03861D01*
X02996D01*
X02832Y03891D02*
Y03887D01*
X0284D01*
Y03891D01*
X02844D01*
Y03899D01*
X0284D01*
Y03903D01*
X02832D01*
Y03899D01*
X02828D01*
Y03891D01*
X02832D01*
X02299Y032434D02*
Y032394D01*
X02307D01*
Y032434D01*
X02311D01*
Y032514D01*
X02307D01*
Y032554D01*
X02299D01*
Y032514D01*
X02295D01*
Y032434D01*
X02299D01*
X03479Y05376D02*
Y05372D01*
X03487D01*
Y05376D01*
X03491D01*
Y05384D01*
X03487D01*
Y05388D01*
X03479D01*
Y05384D01*
X03475D01*
Y05376D01*
X03479D01*
X03326D02*
Y05372D01*
X03334D01*
Y05376D01*
X03338D01*
Y05384D01*
X03334D01*
Y05388D01*
X03326D01*
Y05384D01*
X03322D01*
Y05376D01*
X03326D01*
X0321Y05183D02*
Y05179D01*
X03218D01*
Y05183D01*
X03222D01*
Y05191D01*
X03218D01*
Y05195D01*
X0321D01*
Y05191D01*
X03206D01*
Y05183D01*
X0321D01*
X02892Y04623D02*
Y04619D01*
X029D01*
Y04623D01*
X02904D01*
Y04631D01*
X029D01*
Y04635D01*
X02892D01*
Y04631D01*
X02888D01*
Y04623D01*
X02892D01*
X02584Y04606D02*
Y04602D01*
X02592D01*
Y04606D01*
X02596D01*
Y04614D01*
X02592D01*
Y04618D01*
X02584D01*
Y04614D01*
X0258D01*
Y04606D01*
X02584D01*
X02934Y03118D02*
Y03114D01*
X02942D01*
Y03118D01*
X02946D01*
Y03126D01*
X02942D01*
Y0313D01*
X02934D01*
Y03126D01*
X0293D01*
Y03118D01*
X02934D01*
X02974Y02748D02*
Y02744D01*
X02982D01*
Y02748D01*
X02986D01*
Y02756D01*
X02982D01*
Y0276D01*
X02974D01*
Y02756D01*
X0297D01*
Y02748D01*
X02974D01*
X03025Y02496D02*
Y02492D01*
X03033D01*
Y02496D01*
X03037D01*
Y02504D01*
X03033D01*
Y02508D01*
X03025D01*
Y02504D01*
X03021D01*
Y02496D01*
X03025D01*
X02967Y02394D02*
Y0239D01*
X02975D01*
Y02394D01*
X02979D01*
Y02402D01*
X02975D01*
Y02406D01*
X02967D01*
Y02402D01*
X02963D01*
Y02394D01*
X02967D01*
X02949Y02409D02*
Y02405D01*
X02957D01*
Y02409D01*
X02961D01*
Y02417D01*
X02957D01*
Y02421D01*
X02949D01*
Y02417D01*
X02945D01*
Y02409D01*
X02949D01*
X02969Y02708D02*
Y02704D01*
X02977D01*
Y02708D01*
X02981D01*
Y02716D01*
X02977D01*
Y0272D01*
X02969D01*
Y02716D01*
X02965D01*
Y02708D01*
X02969D01*
X0314Y02566D02*
Y02562D01*
X03148D01*
Y02566D01*
X03152D01*
Y02574D01*
X03148D01*
Y02578D01*
X0314D01*
Y02574D01*
X03136D01*
Y02566D01*
X0314D01*
X02489Y02512D02*
Y02508D01*
X02497D01*
Y02512D01*
X02501D01*
Y0252D01*
X02497D01*
Y02524D01*
X02489D01*
Y0252D01*
X02485D01*
Y02512D01*
X02489D01*
X024505Y02479D02*
Y02475D01*
X024585D01*
Y02479D01*
X024625D01*
Y02487D01*
X024585D01*
Y02491D01*
X024505D01*
Y02487D01*
X024465D01*
Y02479D01*
X024505D01*
X02518Y02495D02*
Y02491D01*
X02526D01*
Y02495D01*
X0253D01*
Y02503D01*
X02526D01*
Y02507D01*
X02518D01*
Y02503D01*
X02514D01*
Y02495D01*
X02518D01*
X02241Y02742D02*
Y02738D01*
X02249D01*
Y02742D01*
X02253D01*
Y0275D01*
X02249D01*
Y02754D01*
X02241D01*
Y0275D01*
X02237D01*
Y02742D01*
X02241D01*
X023385Y026585D02*
Y026545D01*
X023465D01*
Y026585D01*
X023505D01*
Y026665D01*
X023465D01*
Y026705D01*
X023385D01*
Y026665D01*
X023345D01*
Y026585D01*
X023385D01*
X02595Y025155D02*
Y025115D01*
X02603D01*
Y025155D01*
X02607D01*
Y025235D01*
X02603D01*
Y025275D01*
X02595D01*
Y025235D01*
X02591D01*
Y025155D01*
X02595D01*
X02709Y02543D02*
Y02539D01*
X02717D01*
Y02543D01*
X02721D01*
Y02551D01*
X02717D01*
Y02555D01*
X02709D01*
Y02551D01*
X02705D01*
Y02543D01*
X02709D01*
X02564Y02557D02*
Y02553D01*
X02572D01*
Y02557D01*
X02576D01*
Y02565D01*
X02572D01*
Y02569D01*
X02564D01*
Y02565D01*
X0256D01*
Y02557D01*
X02564D01*
X024767Y022561D02*
Y022521D01*
X024847D01*
Y022561D01*
X024887D01*
Y022641D01*
X024847D01*
Y022681D01*
X024767D01*
Y022641D01*
X024727D01*
Y022561D01*
X024767D01*
X02601Y02346D02*
Y02342D01*
X02609D01*
Y02346D01*
X02613D01*
Y02354D01*
X02609D01*
Y02358D01*
X02601D01*
Y02354D01*
X02597D01*
Y02346D01*
X02601D01*
X02538Y02287D02*
Y02283D01*
X02546D01*
Y02287D01*
X0255D01*
Y02295D01*
X02546D01*
Y02299D01*
X02538D01*
Y02295D01*
X02534D01*
Y02287D01*
X02538D01*
X025697Y024103D02*
Y024063D01*
X025777D01*
Y024103D01*
X025817D01*
Y024183D01*
X025777D01*
Y024223D01*
X025697D01*
Y024183D01*
X025657D01*
Y024103D01*
X025697D01*
X02244Y02504D02*
Y025D01*
X02252D01*
Y02504D01*
X02256D01*
Y02512D01*
X02252D01*
Y02516D01*
X02244D01*
Y02512D01*
X0224D01*
Y02504D01*
X02244D01*
X02538Y02363D02*
Y02359D01*
X02546D01*
Y02363D01*
X0255D01*
Y02371D01*
X02546D01*
Y02375D01*
X02538D01*
Y02371D01*
X02534D01*
Y02363D01*
X02538D01*
X02619Y01871D02*
Y01867D01*
X02627D01*
Y01871D01*
X02631D01*
Y01879D01*
X02627D01*
Y01883D01*
X02619D01*
Y01879D01*
X02615D01*
Y01871D01*
X02619D01*
X02675Y01887D02*
Y01883D01*
X02683D01*
Y01887D01*
X02687D01*
Y01895D01*
X02683D01*
Y01899D01*
X02675D01*
Y01895D01*
X02671D01*
Y01887D01*
X02675D01*
X024451Y027779D02*
Y027739D01*
X024531D01*
Y027779D01*
X024571D01*
Y027859D01*
X024531D01*
Y027899D01*
X024451D01*
Y027859D01*
X024411D01*
Y027779D01*
X024451D01*
X02535Y0269D02*
Y02686D01*
X02543D01*
Y0269D01*
X02547D01*
Y02698D01*
X02543D01*
Y02702D01*
X02535D01*
Y02698D01*
X02531D01*
Y0269D01*
X02535D01*
X02384Y0184D02*
Y01836D01*
X02392D01*
Y0184D01*
X02396D01*
Y01848D01*
X02392D01*
Y01852D01*
X02384D01*
Y01848D01*
X0238D01*
Y0184D01*
X02384D01*
X02781Y01888D02*
Y01884D01*
X02789D01*
Y01888D01*
X02793D01*
Y01896D01*
X02789D01*
Y019D01*
X02781D01*
Y01896D01*
X02777D01*
Y01888D01*
X02781D01*
X02829Y01961D02*
Y01957D01*
X02837D01*
Y01961D01*
X02841D01*
Y01969D01*
X02837D01*
Y01973D01*
X02829D01*
Y01969D01*
X02825D01*
Y01961D01*
X02829D01*
X02816Y02061D02*
Y02057D01*
X02824D01*
Y02061D01*
X02828D01*
Y02069D01*
X02824D01*
Y02073D01*
X02816D01*
Y02069D01*
X02812D01*
Y02061D01*
X02816D01*
X01687Y02312D02*
Y02308D01*
X01695D01*
Y02312D01*
X01699D01*
Y0232D01*
X01695D01*
Y02324D01*
X01687D01*
Y0232D01*
X01683D01*
Y02312D01*
X01687D01*
X01599Y02154D02*
Y0215D01*
X01607D01*
Y02154D01*
X01611D01*
Y02162D01*
X01607D01*
Y02166D01*
X01599D01*
Y02162D01*
X01595D01*
Y02154D01*
X01599D01*
X01836Y02511D02*
Y02507D01*
X01844D01*
Y02511D01*
X01848D01*
Y02519D01*
X01844D01*
Y02523D01*
X01836D01*
Y02519D01*
X01832D01*
Y02511D01*
X01836D01*
X01841Y0228D02*
Y02276D01*
X01849D01*
Y0228D01*
X01853D01*
Y02288D01*
X01849D01*
Y02292D01*
X01841D01*
Y02288D01*
X01837D01*
Y0228D01*
X01841D01*
X01722Y0201D02*
Y02006D01*
X0173D01*
Y0201D01*
X01734D01*
Y02018D01*
X0173D01*
Y02022D01*
X01722D01*
Y02018D01*
X01718D01*
Y0201D01*
X01722D01*
X02184Y01875D02*
Y01871D01*
X02192D01*
Y01875D01*
X02196D01*
Y01883D01*
X02192D01*
Y01887D01*
X02184D01*
Y01883D01*
X0218D01*
Y01875D01*
X02184D01*
X01785Y01947D02*
Y01943D01*
X01793D01*
Y01947D01*
X01797D01*
Y01955D01*
X01793D01*
Y01959D01*
X01785D01*
Y01955D01*
X01781D01*
Y01947D01*
X01785D01*
X0138Y02326D02*
Y02322D01*
X01388D01*
Y02326D01*
X01392D01*
Y02334D01*
X01388D01*
Y02338D01*
X0138D01*
Y02334D01*
X01376D01*
Y02326D01*
X0138D01*
X0131Y0233D02*
Y02326D01*
X01318D01*
Y0233D01*
X01322D01*
Y02338D01*
X01318D01*
Y02342D01*
X0131D01*
Y02338D01*
X01306D01*
Y0233D01*
X0131D01*
X023765Y01376D02*
Y01372D01*
X023845D01*
Y01376D01*
X023885D01*
Y01384D01*
X023845D01*
Y01388D01*
X023765D01*
Y01384D01*
X023725D01*
Y01376D01*
X023765D01*
X02179Y02729D02*
Y02725D01*
X02187D01*
Y02729D01*
X02191D01*
Y02737D01*
X02187D01*
Y02741D01*
X02179D01*
Y02737D01*
X02175D01*
Y02729D01*
X02179D01*
X0232Y01375D02*
Y01371D01*
X02328D01*
Y01375D01*
X02332D01*
Y01383D01*
X02328D01*
Y01387D01*
X0232D01*
Y01383D01*
X02316D01*
Y01375D01*
X0232D01*
X02654Y01709D02*
Y01705D01*
X02662D01*
Y01709D01*
X02666D01*
Y01717D01*
X02662D01*
Y01721D01*
X02654D01*
Y01717D01*
X0265D01*
Y01709D01*
X02654D01*
X03233Y01926D02*
Y01922D01*
X03241D01*
Y01926D01*
X03245D01*
Y01934D01*
X03241D01*
Y01938D01*
X03233D01*
Y01934D01*
X03229D01*
Y01926D01*
X03233D01*
X02397Y01146D02*
Y01142D01*
X02405D01*
Y01146D01*
X02409D01*
Y01154D01*
X02405D01*
Y01158D01*
X02397D01*
Y01154D01*
X02393D01*
Y01146D01*
X02397D01*
X032Y02873D02*
Y02869D01*
X03208D01*
Y02873D01*
X03212D01*
Y02881D01*
X03208D01*
Y02885D01*
X032D01*
Y02881D01*
X03196D01*
Y02873D01*
X032D01*
X032205Y02837D02*
Y02833D01*
X032285D01*
Y02837D01*
X032325D01*
Y02845D01*
X032285D01*
Y02849D01*
X032205D01*
Y02845D01*
X032165D01*
Y02837D01*
X032205D01*
X031455Y028165D02*
Y028125D01*
X031535D01*
Y028165D01*
X031575D01*
Y028245D01*
X031535D01*
Y028285D01*
X031455D01*
Y028245D01*
X031415D01*
Y028165D01*
X031455D01*
X031775Y029725D02*
Y029685D01*
X031855D01*
Y029725D01*
X031895D01*
Y029805D01*
X031855D01*
Y029845D01*
X031775D01*
Y029805D01*
X031735D01*
Y029725D01*
X031775D01*
X03164Y028715D02*
Y028675D01*
X03172D01*
Y028715D01*
X03176D01*
Y028795D01*
X03172D01*
Y028835D01*
X03164D01*
Y028795D01*
X0316D01*
Y028715D01*
X03164D01*
X02108Y01386D02*
Y01382D01*
X02116D01*
Y01386D01*
X0212D01*
Y01394D01*
X02116D01*
Y01398D01*
X02108D01*
Y01394D01*
X02104D01*
Y01386D01*
X02108D01*
X02057Y013D02*
Y01296D01*
X02065D01*
Y013D01*
X02069D01*
Y01308D01*
X02065D01*
Y01312D01*
X02057D01*
Y01308D01*
X02053D01*
Y013D01*
X02057D01*
X02904Y01371D02*
Y01367D01*
X02912D01*
Y01371D01*
X02916D01*
Y01379D01*
X02912D01*
Y01383D01*
X02904D01*
Y01379D01*
X029D01*
Y01371D01*
X02904D01*
X028266Y026374D02*
Y026334D01*
X028346D01*
Y026374D01*
X028386D01*
Y026454D01*
X028346D01*
Y026494D01*
X028266D01*
Y026454D01*
X028226D01*
Y026374D01*
X028266D01*
X01693Y04244D02*
Y0424D01*
X01701D01*
Y04244D01*
X01705D01*
Y04252D01*
X01701D01*
Y04256D01*
X01693D01*
Y04252D01*
X01689D01*
Y04244D01*
X01693D01*
X01723Y05359D02*
Y05355D01*
X01731D01*
Y05359D01*
X01735D01*
Y05367D01*
X01731D01*
Y05371D01*
X01723D01*
Y05367D01*
X01719D01*
Y05359D01*
X01723D01*
X0167Y05336D02*
Y05332D01*
X01678D01*
Y05336D01*
X01682D01*
Y05344D01*
X01678D01*
Y05348D01*
X0167D01*
Y05344D01*
X01666D01*
Y05336D01*
X0167D01*
X03172Y02938D02*
Y02934D01*
X0318D01*
Y02938D01*
X03184D01*
Y02946D01*
X0318D01*
Y0295D01*
X03172D01*
Y02946D01*
X03168D01*
Y02938D01*
X03172D01*
X03251Y02929D02*
Y02925D01*
X03259D01*
Y02929D01*
X03263D01*
Y02937D01*
X03259D01*
Y02941D01*
X03251D01*
Y02937D01*
X03247D01*
Y02929D01*
X03251D01*
X01934Y04471D02*
Y04467D01*
X01942D01*
Y04471D01*
X01946D01*
Y04479D01*
X01942D01*
Y04483D01*
X01934D01*
Y04479D01*
X0193D01*
Y04471D01*
X01934D01*
X01614Y05317D02*
Y05313D01*
X01622D01*
Y05317D01*
X01626D01*
Y05325D01*
X01622D01*
Y05329D01*
X01614D01*
Y05325D01*
X0161D01*
Y05317D01*
X01614D01*
X0154Y05267D02*
Y05263D01*
X01548D01*
Y05267D01*
X01552D01*
Y05275D01*
X01548D01*
Y05279D01*
X0154D01*
Y05275D01*
X01536D01*
Y05267D01*
X0154D01*
X03064Y05247D02*
Y05243D01*
X03072D01*
Y05247D01*
X03076D01*
Y05255D01*
X03072D01*
Y05259D01*
X03064D01*
Y05255D01*
X0306D01*
Y05247D01*
X03064D01*
X03031Y05244D02*
Y0524D01*
X03039D01*
Y05244D01*
X03043D01*
Y05252D01*
X03039D01*
Y05256D01*
X03031D01*
Y05252D01*
X03027D01*
Y05244D01*
X03031D01*
X03182Y03027D02*
Y03023D01*
X0319D01*
Y03027D01*
X03194D01*
Y03035D01*
X0319D01*
Y03039D01*
X03182D01*
Y03035D01*
X03178D01*
Y03027D01*
X03182D01*
X02476Y03107D02*
Y03103D01*
X02484D01*
Y03107D01*
X02488D01*
Y03115D01*
X02484D01*
Y03119D01*
X02476D01*
Y03115D01*
X02472D01*
Y03107D01*
X02476D01*
X01555Y03335D02*
Y03331D01*
X01563D01*
Y03335D01*
X01567D01*
Y03343D01*
X01563D01*
Y03347D01*
X01555D01*
Y03343D01*
X01551D01*
Y03335D01*
X01555D01*
X01561Y03295D02*
Y03291D01*
X01569D01*
Y03295D01*
X01573D01*
Y03303D01*
X01569D01*
Y03307D01*
X01561D01*
Y03303D01*
X01557D01*
Y03295D01*
X01561D01*
X014623Y033457D02*
Y033417D01*
X014703D01*
Y033457D01*
X014743D01*
Y033537D01*
X014703D01*
Y033577D01*
X014623D01*
Y033537D01*
X014583D01*
Y033457D01*
X014623D01*
X014185Y033605D02*
Y033565D01*
X014265D01*
Y033605D01*
X014305D01*
Y033685D01*
X014265D01*
Y033725D01*
X014185D01*
Y033685D01*
X014145D01*
Y033605D01*
X014185D01*
X03735Y03974D02*
Y0397D01*
X03743D01*
Y03974D01*
X03747D01*
Y03982D01*
X03743D01*
Y03986D01*
X03735D01*
Y03982D01*
X03731D01*
Y03974D01*
X03735D01*
X03438Y0375D02*
Y03746D01*
X03446D01*
Y0375D01*
X0345D01*
Y03758D01*
X03446D01*
Y03762D01*
X03438D01*
Y03758D01*
X03434D01*
Y0375D01*
X03438D01*
X03366Y036565D02*
Y036525D01*
X03374D01*
Y036565D01*
X03378D01*
Y036645D01*
X03374D01*
Y036685D01*
X03366D01*
Y036645D01*
X03362D01*
Y036565D01*
X03366D01*
X025785Y0298D02*
Y02976D01*
X025865D01*
Y0298D01*
X025905D01*
Y02988D01*
X025865D01*
Y02992D01*
X025785D01*
Y02988D01*
X025745D01*
Y0298D01*
X025785D01*
X02285Y02808D02*
Y02804D01*
X02293D01*
Y02808D01*
X02297D01*
Y02816D01*
X02293D01*
Y0282D01*
X02285D01*
Y02816D01*
X02281D01*
Y02808D01*
X02285D01*
X025323Y029083D02*
Y029043D01*
X025403D01*
Y029083D01*
X025443D01*
Y029163D01*
X025403D01*
Y029203D01*
X025323D01*
Y029163D01*
X025283D01*
Y029083D01*
X025323D01*
X025301Y029316D02*
Y029276D01*
X025381D01*
Y029316D01*
X025421D01*
Y029396D01*
X025381D01*
Y029436D01*
X025301D01*
Y029396D01*
X025261D01*
Y029316D01*
X025301D01*
X02302Y02857D02*
Y02853D01*
X0231D01*
Y02857D01*
X02314D01*
Y02865D01*
X0231D01*
Y02869D01*
X02302D01*
Y02865D01*
X02298D01*
Y02857D01*
X02302D01*
X03031Y02806D02*
Y02802D01*
X03039D01*
Y02806D01*
X03043D01*
Y02814D01*
X03039D01*
Y02818D01*
X03031D01*
Y02814D01*
X03027D01*
Y02806D01*
X03031D01*
X030035Y028435D02*
Y028395D01*
X030115D01*
Y028435D01*
X030155D01*
Y028515D01*
X030115D01*
Y028555D01*
X030035D01*
Y028515D01*
X029995D01*
Y028435D01*
X030035D01*
X02447Y03132D02*
Y03128D01*
X02455D01*
Y03132D01*
X02459D01*
Y0314D01*
X02455D01*
Y03144D01*
X02447D01*
Y0314D01*
X02443D01*
Y03132D01*
X02447D01*
X01482Y02198D02*
Y02194D01*
X0149D01*
Y02198D01*
X01494D01*
Y02206D01*
X0149D01*
Y0221D01*
X01482D01*
Y02206D01*
X01478D01*
Y02198D01*
X01482D01*
X01325Y01469D02*
Y01465D01*
X01333D01*
Y01469D01*
X01337D01*
Y01477D01*
X01333D01*
Y01481D01*
X01325D01*
Y01477D01*
X01321D01*
Y01469D01*
X01325D01*
X023022Y035982D02*
Y035942D01*
X023102D01*
Y035982D01*
X023142D01*
Y036062D01*
X023102D01*
Y036102D01*
X023022D01*
Y036062D01*
X022982D01*
Y035982D01*
X023022D01*
X028423Y026683D02*
Y026643D01*
X028503D01*
Y026683D01*
X028543D01*
Y026763D01*
X028503D01*
Y026803D01*
X028423D01*
Y026763D01*
X028383D01*
Y026683D01*
X028423D01*
X028015Y026465D02*
Y026425D01*
X028095D01*
Y026465D01*
X028135D01*
Y026545D01*
X028095D01*
Y026585D01*
X028015D01*
Y026545D01*
X027975D01*
Y026465D01*
X028015D01*
X030583Y028143D02*
Y028103D01*
X030663D01*
Y028143D01*
X030703D01*
Y028223D01*
X030663D01*
Y028263D01*
X030583D01*
Y028223D01*
X030543D01*
Y028143D01*
X030583D01*
X01956Y01265D02*
Y01261D01*
X01964D01*
Y01265D01*
X01968D01*
Y01273D01*
X01964D01*
Y01277D01*
X01956D01*
Y01273D01*
X01952D01*
Y01265D01*
X01956D01*
X01856Y01272D02*
Y01268D01*
X01864D01*
Y01272D01*
X01868D01*
Y0128D01*
X01864D01*
Y01284D01*
X01856D01*
Y0128D01*
X01852D01*
Y01272D01*
X01856D01*
X01768Y01269D02*
Y01265D01*
X01776D01*
Y01269D01*
X0178D01*
Y01277D01*
X01776D01*
Y01281D01*
X01768D01*
Y01277D01*
X01764D01*
Y01269D01*
X01768D01*
X01672Y01261D02*
Y01257D01*
X0168D01*
Y01261D01*
X01684D01*
Y01269D01*
X0168D01*
Y01273D01*
X01672D01*
Y01269D01*
X01668D01*
Y01261D01*
X01672D01*
X01383Y02228D02*
Y02224D01*
X01391D01*
Y02228D01*
X01395D01*
Y02236D01*
X01391D01*
Y0224D01*
X01383D01*
Y02236D01*
X01379D01*
Y02228D01*
X01383D01*
X01536Y02176D02*
Y02172D01*
X01544D01*
Y02176D01*
X01548D01*
Y02184D01*
X01544D01*
Y02188D01*
X01536D01*
Y02184D01*
X01532D01*
Y02176D01*
X01536D01*
X0233Y01993D02*
Y01989D01*
X02338D01*
Y01993D01*
X02342D01*
Y02001D01*
X02338D01*
Y02005D01*
X0233D01*
Y02001D01*
X02326D01*
Y01993D01*
X0233D01*
X01514Y01481D02*
Y01477D01*
X01522D01*
Y01481D01*
X01526D01*
Y01489D01*
X01522D01*
Y01493D01*
X01514D01*
Y01489D01*
X0151D01*
Y01481D01*
X01514D01*
X01424Y01167D02*
Y01163D01*
X01432D01*
Y01167D01*
X01436D01*
Y01175D01*
X01432D01*
Y01179D01*
X01424D01*
Y01175D01*
X0142D01*
Y01167D01*
X01424D01*
X02326Y03606D02*
Y03602D01*
X02334D01*
Y03606D01*
X02338D01*
Y03614D01*
X02334D01*
Y03618D01*
X02326D01*
Y03614D01*
X02322D01*
Y03606D01*
X02326D01*
X023581Y036243D02*
Y036203D01*
X023661D01*
Y036243D01*
X023701D01*
Y036323D01*
X023661D01*
Y036363D01*
X023581D01*
Y036323D01*
X023541D01*
Y036243D01*
X023581D01*
X01627Y02771D02*
Y02767D01*
X01635D01*
Y02771D01*
X01639D01*
Y02779D01*
X01635D01*
Y02783D01*
X01627D01*
Y02779D01*
X01623D01*
Y02771D01*
X01627D01*
X025227Y03529D02*
Y03525D01*
X025307D01*
Y03529D01*
X025347D01*
Y03537D01*
X025307D01*
Y03541D01*
X025227D01*
Y03537D01*
X025187D01*
Y03529D01*
X025227D01*
X02483Y03513D02*
Y03509D01*
X02491D01*
Y03513D01*
X02495D01*
Y03521D01*
X02491D01*
Y03525D01*
X02483D01*
Y03521D01*
X02479D01*
Y03513D01*
X02483D01*
X025251Y035556D02*
Y035516D01*
X025331D01*
Y035556D01*
X025371D01*
Y035636D01*
X025331D01*
Y035676D01*
X025251D01*
Y035636D01*
X025211D01*
Y035556D01*
X025251D01*
X0138Y02766D02*
Y02762D01*
X01388D01*
Y02766D01*
X01392D01*
Y02774D01*
X01388D01*
Y02778D01*
X0138D01*
Y02774D01*
X01376D01*
Y02766D01*
X0138D01*
X01171Y055474D02*
Y055434D01*
X01179D01*
Y055474D01*
X01183D01*
Y055554D01*
X01179D01*
Y055594D01*
X01171D01*
Y055554D01*
X01167D01*
Y055474D01*
X01171D01*
X02026Y04623D02*
Y04619D01*
X02034D01*
Y04623D01*
X02038D01*
Y04631D01*
X02034D01*
Y04635D01*
X02026D01*
Y04631D01*
X02022D01*
Y04623D01*
X02026D01*
X02061Y05181D02*
Y05177D01*
X02069D01*
Y05181D01*
X02073D01*
Y05189D01*
X02069D01*
Y05193D01*
X02061D01*
Y05189D01*
X02057D01*
Y05181D01*
X02061D01*
X02133Y05008D02*
Y05004D01*
X02141D01*
Y05008D01*
X02145D01*
Y05016D01*
X02141D01*
Y0502D01*
X02133D01*
Y05016D01*
X02129D01*
Y05008D01*
X02133D01*
X02286Y05034D02*
Y0503D01*
X02294D01*
Y05034D01*
X02298D01*
Y05042D01*
X02294D01*
Y05046D01*
X02286D01*
Y05042D01*
X02282D01*
Y05034D01*
X02286D01*
X028435Y052495D02*
Y052455D01*
X028515D01*
Y052495D01*
X028555D01*
Y052575D01*
X028515D01*
Y052615D01*
X028435D01*
Y052575D01*
X028395D01*
Y052495D01*
X028435D01*
X031006Y055906D02*
Y055866D01*
X031086D01*
Y055906D01*
X031126D01*
Y055986D01*
X031086D01*
Y056026D01*
X031006D01*
Y055986D01*
X030966D01*
Y055906D01*
X031006D01*
X033343Y054833D02*
Y054793D01*
X033423D01*
Y054833D01*
X033463D01*
Y054913D01*
X033423D01*
Y054953D01*
X033343D01*
Y054913D01*
X033303D01*
Y054833D01*
X033343D01*
X0229Y05635D02*
Y05631D01*
X02298D01*
Y05635D01*
X02302D01*
Y05643D01*
X02298D01*
Y05647D01*
X0229D01*
Y05643D01*
X02286D01*
Y05635D01*
X0229D01*
X02053Y056618D02*
Y056578D01*
X02061D01*
Y056618D01*
X02065D01*
Y056698D01*
X02061D01*
Y056738D01*
X02053D01*
Y056698D01*
X02049D01*
Y056618D01*
X02053D01*
D91*
X016218Y024195D02*
G03*
X016218Y024195I-00008J0D01*
G01*
X017218D02*
G03*
X017218Y024195I-00008J0D01*
G01*
X02165Y01151D02*
G03*
X02165Y01151I-00008J0D01*
G01*
X01965D02*
G03*
X01965Y01151I-00008J0D01*
G01*
X01865D02*
G03*
X01865Y01151I-00008J0D01*
G01*
X01765D02*
G03*
X01765Y01151I-00008J0D01*
G01*
X01665D02*
G03*
X01665Y01151I-00008J0D01*
G01*
X02065D02*
G03*
X02065Y01151I-00008J0D01*
G01*
M02*
