G04*
G04 #@! TF.GenerationSoftware,Altium Limited,Altium Designer,21.1.1 (26)*
G04*
G04 Layer_Color=255*
%FSTAX24Y24*%
%MOIN*%
G70*
G04*
G04 #@! TF.SameCoordinates,5FF4FBEF-6F1C-4BA3-BCFF-5D0DF395B62B*
G04*
G04*
G04 #@! TF.FilePolarity,Positive*
G04*
G01*
G75*
%ADD20R,0.0512X0.0610*%
%ADD21R,0.0207X0.0197*%
%ADD22R,0.0098X0.0197*%
%ADD23R,0.0366X0.0343*%
%ADD24R,0.0197X0.0187*%
%ADD25R,0.0187X0.0197*%
%ADD26R,0.0100X0.0700*%
%ADD27R,0.0748X0.0748*%
%ADD28R,0.0433X0.0748*%
%ADD29R,0.0551X0.0472*%
G04:AMPARAMS|DCode=30|XSize=58.1mil|YSize=11.8mil|CornerRadius=0mil|HoleSize=0mil|Usage=FLASHONLY|Rotation=315.000|XOffset=0mil|YOffset=0mil|HoleType=Round|Shape=Rectangle|*
%AMROTATEDRECTD30*
4,1,4,-0.0247,0.0164,-0.0164,0.0247,0.0247,-0.0164,0.0164,-0.0247,-0.0247,0.0164,0.0*
%
%ADD30ROTATEDRECTD30*%

G04:AMPARAMS|DCode=31|XSize=58.1mil|YSize=11.8mil|CornerRadius=0mil|HoleSize=0mil|Usage=FLASHONLY|Rotation=225.000|XOffset=0mil|YOffset=0mil|HoleType=Round|Shape=Rectangle|*
%AMROTATEDRECTD31*
4,1,4,0.0164,0.0247,0.0247,0.0164,-0.0164,-0.0247,-0.0247,-0.0164,0.0164,0.0247,0.0*
%
%ADD31ROTATEDRECTD31*%

%ADD32R,0.0669X0.0413*%
%ADD33R,0.0394X0.0433*%
%ADD34R,0.0350X0.0366*%
%ADD35R,0.0366X0.0350*%
%ADD36R,0.0488X0.0441*%
%ADD37R,0.0118X0.0276*%
G04:AMPARAMS|DCode=38|XSize=23.6mil|YSize=21.3mil|CornerRadius=5.6mil|HoleSize=0mil|Usage=FLASHONLY|Rotation=90.000|XOffset=0mil|YOffset=0mil|HoleType=Round|Shape=RoundedRectangle|*
%AMROUNDEDRECTD38*
21,1,0.0236,0.0100,0,0,90.0*
21,1,0.0124,0.0213,0,0,90.0*
1,1,0.0113,0.0050,0.0062*
1,1,0.0113,0.0050,-0.0062*
1,1,0.0113,-0.0050,-0.0062*
1,1,0.0113,-0.0050,0.0062*
%
%ADD38ROUNDEDRECTD38*%
G04:AMPARAMS|DCode=39|XSize=23.6mil|YSize=21.3mil|CornerRadius=5.6mil|HoleSize=0mil|Usage=FLASHONLY|Rotation=180.000|XOffset=0mil|YOffset=0mil|HoleType=Round|Shape=RoundedRectangle|*
%AMROUNDEDRECTD39*
21,1,0.0236,0.0100,0,0,180.0*
21,1,0.0124,0.0213,0,0,180.0*
1,1,0.0113,-0.0062,0.0050*
1,1,0.0113,0.0062,0.0050*
1,1,0.0113,0.0062,-0.0050*
1,1,0.0113,-0.0062,-0.0050*
%
%ADD39ROUNDEDRECTD39*%
%ADD40R,0.0150X0.0157*%
G04:AMPARAMS|DCode=41|XSize=15mil|YSize=15.7mil|CornerRadius=1.9mil|HoleSize=0mil|Usage=FLASHONLY|Rotation=180.000|XOffset=0mil|YOffset=0mil|HoleType=Round|Shape=RoundedRectangle|*
%AMROUNDEDRECTD41*
21,1,0.0150,0.0120,0,0,180.0*
21,1,0.0112,0.0157,0,0,180.0*
1,1,0.0037,-0.0056,0.0060*
1,1,0.0037,0.0056,0.0060*
1,1,0.0037,0.0056,-0.0060*
1,1,0.0037,-0.0056,-0.0060*
%
%ADD41ROUNDEDRECTD41*%
G04:AMPARAMS|DCode=73|XSize=43.3mil|YSize=59.1mil|CornerRadius=0.7mil|HoleSize=0mil|Usage=FLASHONLY|Rotation=270.000|XOffset=0mil|YOffset=0mil|HoleType=Round|Shape=RoundedRectangle|*
%AMROUNDEDRECTD73*
21,1,0.0433,0.0578,0,0,270.0*
21,1,0.0420,0.0591,0,0,270.0*
1,1,0.0013,-0.0289,-0.0210*
1,1,0.0013,-0.0289,0.0210*
1,1,0.0013,0.0289,0.0210*
1,1,0.0013,0.0289,-0.0210*
%
%ADD73ROUNDEDRECTD73*%
G04:AMPARAMS|DCode=74|XSize=31.5mil|YSize=59.1mil|CornerRadius=0.5mil|HoleSize=0mil|Usage=FLASHONLY|Rotation=270.000|XOffset=0mil|YOffset=0mil|HoleType=Round|Shape=RoundedRectangle|*
%AMROUNDEDRECTD74*
21,1,0.0315,0.0581,0,0,270.0*
21,1,0.0306,0.0591,0,0,270.0*
1,1,0.0009,-0.0291,-0.0153*
1,1,0.0009,-0.0291,0.0153*
1,1,0.0009,0.0291,0.0153*
1,1,0.0009,0.0291,-0.0153*
%
%ADD74ROUNDEDRECTD74*%
%ADD75R,0.0591X0.0591*%
%ADD76C,0.0591*%
%ADD77O,0.0750X0.0900*%
%ADD78R,0.0750X0.0900*%
%ADD79C,0.0421*%
%ADD80C,0.0457*%
%ADD81R,0.0457X0.0457*%
%ADD82C,0.0630*%
%ADD83R,0.0630X0.0630*%
D20*
X069364Y017545D02*
D03*
Y014415D02*
D03*
X071136Y017545D02*
D03*
Y014415D02*
D03*
X074614Y017575D02*
D03*
Y014445D02*
D03*
X076386Y017575D02*
D03*
Y014445D02*
D03*
D21*
X070679Y053706D02*
D03*
X06998D02*
D03*
Y05406D02*
D03*
X070679D02*
D03*
X059278Y055316D02*
D03*
X058579D02*
D03*
Y05567D02*
D03*
X059278D02*
D03*
D22*
X070428Y053706D02*
D03*
X070231D02*
D03*
Y05406D02*
D03*
X070428D02*
D03*
X059027Y055316D02*
D03*
X05883D02*
D03*
Y05567D02*
D03*
X059027D02*
D03*
D23*
X06109Y054948D02*
D03*
Y055543D02*
D03*
X06033Y054873D02*
D03*
Y055467D02*
D03*
X06452Y02152D02*
D03*
Y022114D02*
D03*
X06991Y019456D02*
D03*
Y018862D02*
D03*
X07088Y019456D02*
D03*
Y018862D02*
D03*
X07709Y026559D02*
D03*
Y025964D02*
D03*
D24*
X06649Y046822D02*
D03*
Y046418D02*
D03*
X07185Y044178D02*
D03*
Y044582D02*
D03*
X0752Y04929D02*
D03*
Y049693D02*
D03*
X06557Y017687D02*
D03*
Y01809D02*
D03*
X06624Y021526D02*
D03*
Y021929D02*
D03*
D25*
X074943Y01904D02*
D03*
X07454D02*
D03*
X081097Y057185D02*
D03*
X0815D02*
D03*
X081097Y057835D02*
D03*
X0815D02*
D03*
D26*
X0751Y05694D02*
D03*
X075356D02*
D03*
X075612D02*
D03*
X075868D02*
D03*
X076112D02*
D03*
X060492Y05692D02*
D03*
X060748D02*
D03*
X061004D02*
D03*
X06126D02*
D03*
X061504D02*
D03*
D27*
X074057Y058108D02*
D03*
X077167D02*
D03*
X059449Y058088D02*
D03*
X062559D02*
D03*
D28*
X073022Y037015D02*
D03*
X072038D02*
D03*
D29*
X07378Y033191D02*
D03*
X074646D02*
D03*
Y03386D02*
D03*
X07378D02*
D03*
D30*
X068129Y049711D02*
D03*
X068268Y04985D02*
D03*
X068407Y049989D02*
D03*
X068546Y050128D02*
D03*
X068685Y050267D02*
D03*
X068825Y050406D02*
D03*
X068964Y050546D02*
D03*
X069103Y050685D02*
D03*
X069242Y050824D02*
D03*
X069381Y050963D02*
D03*
X069521Y051102D02*
D03*
X06966Y051242D02*
D03*
X069799Y051381D02*
D03*
X069938Y05152D02*
D03*
X070077Y051659D02*
D03*
X070217Y051798D02*
D03*
X073411Y048604D02*
D03*
X073272Y048464D02*
D03*
X073133Y048325D02*
D03*
X072994Y048186D02*
D03*
X072855Y048047D02*
D03*
X072715Y047908D02*
D03*
X072576Y047768D02*
D03*
X072437Y047629D02*
D03*
X072298Y04749D02*
D03*
X072159Y047351D02*
D03*
X072019Y047212D02*
D03*
X07188Y047073D02*
D03*
X071741Y046933D02*
D03*
X071602Y046794D02*
D03*
X071463Y046655D02*
D03*
X071323Y046516D02*
D03*
X070026Y030147D02*
D03*
X069886Y030008D02*
D03*
X069747Y029868D02*
D03*
X069608Y029729D02*
D03*
X069469Y02959D02*
D03*
X06933Y029451D02*
D03*
X06919Y029312D02*
D03*
X069051Y029172D02*
D03*
X068912Y029033D02*
D03*
X068773Y028894D02*
D03*
X068634Y028755D02*
D03*
X068494Y028616D02*
D03*
X068355Y028476D02*
D03*
X068216Y028337D02*
D03*
X068077Y028198D02*
D03*
X067938Y028059D02*
D03*
X067798Y02792D02*
D03*
X067659Y027781D02*
D03*
X06752Y027641D02*
D03*
X067381Y027502D02*
D03*
X067242Y027363D02*
D03*
X067102Y027224D02*
D03*
X066963Y027085D02*
D03*
X066824Y026945D02*
D03*
X066685Y026806D02*
D03*
X062376Y031114D02*
D03*
X062516Y031254D02*
D03*
X062655Y031393D02*
D03*
X062794Y031532D02*
D03*
X062933Y031671D02*
D03*
X063072Y03181D02*
D03*
X063212Y03195D02*
D03*
X063351Y032089D02*
D03*
X06349Y032228D02*
D03*
X063629Y032367D02*
D03*
X063768Y032506D02*
D03*
X063908Y032646D02*
D03*
X064047Y032785D02*
D03*
X064186Y032924D02*
D03*
X064325Y033063D02*
D03*
X064464Y033202D02*
D03*
X064604Y033342D02*
D03*
X064743Y033481D02*
D03*
X064882Y03362D02*
D03*
X065021Y033759D02*
D03*
X06516Y033898D02*
D03*
X0653Y034038D02*
D03*
X065439Y034177D02*
D03*
X065578Y034316D02*
D03*
X065717Y034455D02*
D03*
D31*
X071323Y051798D02*
D03*
X071463Y051659D02*
D03*
X071602Y05152D02*
D03*
X071741Y051381D02*
D03*
X07188Y051242D02*
D03*
X072019Y051102D02*
D03*
X072159Y050963D02*
D03*
X072298Y050824D02*
D03*
X072437Y050685D02*
D03*
X072576Y050546D02*
D03*
X072715Y050406D02*
D03*
X072855Y050267D02*
D03*
X072994Y050128D02*
D03*
X073133Y049989D02*
D03*
X073272Y04985D02*
D03*
X073411Y049711D02*
D03*
X070217Y046516D02*
D03*
X070077Y046655D02*
D03*
X069938Y046794D02*
D03*
X069799Y046933D02*
D03*
X06966Y047073D02*
D03*
X069521Y047212D02*
D03*
X069381Y047351D02*
D03*
X069242Y04749D02*
D03*
X069103Y047629D02*
D03*
X068964Y047768D02*
D03*
X068825Y047908D02*
D03*
X068685Y048047D02*
D03*
X068546Y048186D02*
D03*
X068407Y048325D02*
D03*
X068268Y048464D02*
D03*
X068129Y048604D02*
D03*
X066685Y034455D02*
D03*
X066824Y034316D02*
D03*
X066963Y034177D02*
D03*
X067102Y034038D02*
D03*
X067242Y033898D02*
D03*
X067381Y033759D02*
D03*
X06752Y03362D02*
D03*
X067659Y033481D02*
D03*
X067798Y033342D02*
D03*
X067938Y033202D02*
D03*
X068077Y033063D02*
D03*
X068216Y032924D02*
D03*
X068355Y032785D02*
D03*
X068494Y032646D02*
D03*
X068634Y032506D02*
D03*
X068773Y032367D02*
D03*
X068912Y032228D02*
D03*
X069051Y032089D02*
D03*
X06919Y03195D02*
D03*
X06933Y03181D02*
D03*
X069469Y031671D02*
D03*
X069608Y031532D02*
D03*
X069747Y031393D02*
D03*
X069886Y031254D02*
D03*
X070026Y031114D02*
D03*
X065717Y026806D02*
D03*
X065578Y026945D02*
D03*
X065439Y027085D02*
D03*
X0653Y027224D02*
D03*
X06516Y027363D02*
D03*
X065021Y027502D02*
D03*
X064882Y027641D02*
D03*
X064743Y027781D02*
D03*
X064604Y02792D02*
D03*
X064464Y028059D02*
D03*
X064325Y028198D02*
D03*
X064186Y028337D02*
D03*
X064047Y028476D02*
D03*
X063908Y028616D02*
D03*
X063768Y028755D02*
D03*
X063629Y028894D02*
D03*
X06349Y029033D02*
D03*
X063351Y029172D02*
D03*
X063212Y029312D02*
D03*
X063072Y029451D02*
D03*
X062933Y02959D02*
D03*
X062794Y029729D02*
D03*
X062655Y029868D02*
D03*
X062516Y030008D02*
D03*
X062376Y030147D02*
D03*
D32*
X080062Y058005D02*
D03*
X078998D02*
D03*
X080062Y057355D02*
D03*
X078998D02*
D03*
D33*
X06699Y021702D02*
D03*
Y021033D02*
D03*
D34*
X064913Y040294D02*
D03*
X06431D02*
D03*
X064913Y044203D02*
D03*
X06431D02*
D03*
X064913Y043421D02*
D03*
X06431D02*
D03*
X069143Y05728D02*
D03*
X06854D02*
D03*
X064913Y041858D02*
D03*
X06431D02*
D03*
X064913Y042639D02*
D03*
X06431D02*
D03*
X064913Y041076D02*
D03*
X06431D02*
D03*
X064913Y039512D02*
D03*
X06431D02*
D03*
X064913Y045767D02*
D03*
X06431D02*
D03*
X064913Y044985D02*
D03*
X06431D02*
D03*
X065378Y054481D02*
D03*
X064775D02*
D03*
X065378Y055127D02*
D03*
X064775D02*
D03*
X065378Y053189D02*
D03*
X064775D02*
D03*
X065378Y053835D02*
D03*
X064775Y053835D02*
D03*
X059067Y04192D02*
D03*
X05967D02*
D03*
D35*
X07622Y026585D02*
D03*
Y025982D02*
D03*
X0609Y027207D02*
D03*
Y02781D02*
D03*
X06782Y010717D02*
D03*
Y01132D02*
D03*
X07061Y037863D02*
D03*
Y03726D02*
D03*
X068503Y01071D02*
D03*
Y011313D02*
D03*
X07314Y057713D02*
D03*
Y05711D02*
D03*
X06608Y051097D02*
D03*
Y0517D02*
D03*
D36*
X068249Y05638D02*
D03*
X069431D02*
D03*
D37*
X062208Y054974D02*
D03*
X061992D02*
D03*
Y055466D02*
D03*
X062208D02*
D03*
D38*
X081149Y058364D02*
D03*
X081487D02*
D03*
X069049Y05793D02*
D03*
X068711D02*
D03*
X072289Y03792D02*
D03*
X071951D02*
D03*
X058961Y05417D02*
D03*
X059299D02*
D03*
D39*
X071395Y02772D02*
D03*
Y028059D02*
D03*
X07381Y037309D02*
D03*
Y036971D02*
D03*
X06041Y053781D02*
D03*
Y054119D02*
D03*
X06122Y053661D02*
D03*
Y053999D02*
D03*
D40*
X075555Y034114D02*
D03*
X075545Y033144D02*
D03*
D41*
X075775Y034114D02*
D03*
X075766Y033144D02*
D03*
D73*
X067239Y058321D02*
D03*
Y057139D02*
D03*
D74*
Y05773D02*
D03*
D75*
X06451Y01853D02*
D03*
X0783Y0473D02*
D03*
D76*
X06351Y01853D02*
D03*
X06451Y01753D02*
D03*
X06351D02*
D03*
X0773Y0473D02*
D03*
X0783Y0463D02*
D03*
X0773D02*
D03*
X0783Y0453D02*
D03*
X0773D02*
D03*
D77*
X077112Y024195D02*
D03*
X07168Y01151D02*
D03*
X07368D02*
D03*
X07468D02*
D03*
X07568D02*
D03*
X07268D02*
D03*
D78*
X076112Y024195D02*
D03*
X07668Y01151D02*
D03*
D79*
X06206Y01241D02*
D03*
Y01291D02*
D03*
X06156Y01241D02*
D03*
Y01291D02*
D03*
X06106Y01241D02*
D03*
X06106Y01291D02*
D03*
X06056Y01241D02*
D03*
Y01291D02*
D03*
X06006Y01241D02*
D03*
X06006Y01291D02*
D03*
D80*
X058963Y043561D02*
D03*
X059963D02*
D03*
D81*
X060963D02*
D03*
D82*
X05466Y05179D02*
D03*
Y05079D02*
D03*
Y04979D02*
D03*
Y04879D02*
D03*
Y04779D02*
D03*
Y04679D02*
D03*
Y04579D02*
D03*
Y04479D02*
D03*
Y04379D02*
D03*
Y04279D02*
D03*
Y04179D02*
D03*
Y04079D02*
D03*
Y03979D02*
D03*
Y03879D02*
D03*
Y03779D02*
D03*
Y03679D02*
D03*
Y03579D02*
D03*
Y03479D02*
D03*
Y03379D02*
D03*
X05366Y05179D02*
D03*
Y05079D02*
D03*
Y04979D02*
D03*
Y04879D02*
D03*
Y04779D02*
D03*
Y04679D02*
D03*
Y04579D02*
D03*
Y04479D02*
D03*
Y04379D02*
D03*
Y04279D02*
D03*
Y04179D02*
D03*
Y04079D02*
D03*
Y03979D02*
D03*
Y03879D02*
D03*
Y03779D02*
D03*
Y03679D02*
D03*
Y03579D02*
D03*
Y03479D02*
D03*
Y03379D02*
D03*
Y03279D02*
D03*
X05364Y03036D02*
D03*
Y02936D02*
D03*
Y02836D02*
D03*
Y02736D02*
D03*
Y02636D02*
D03*
Y02536D02*
D03*
Y02436D02*
D03*
Y02336D02*
D03*
Y02236D02*
D03*
Y02136D02*
D03*
Y02036D02*
D03*
Y01936D02*
D03*
Y01836D02*
D03*
Y01736D02*
D03*
Y01636D02*
D03*
Y01536D02*
D03*
Y01436D02*
D03*
Y01336D02*
D03*
Y01236D02*
D03*
X05464Y03036D02*
D03*
Y02936D02*
D03*
Y02836D02*
D03*
Y02736D02*
D03*
Y02636D02*
D03*
Y02536D02*
D03*
Y02436D02*
D03*
Y02336D02*
D03*
Y02236D02*
D03*
Y02136D02*
D03*
Y02036D02*
D03*
Y01936D02*
D03*
Y01836D02*
D03*
Y01736D02*
D03*
Y01636D02*
D03*
Y01536D02*
D03*
Y01436D02*
D03*
Y01336D02*
D03*
Y01236D02*
D03*
Y01136D02*
D03*
X08185Y03279D02*
D03*
Y03379D02*
D03*
Y03479D02*
D03*
Y03579D02*
D03*
Y03679D02*
D03*
Y03779D02*
D03*
Y03879D02*
D03*
Y03979D02*
D03*
Y04079D02*
D03*
Y04179D02*
D03*
Y04279D02*
D03*
Y04379D02*
D03*
Y04479D02*
D03*
Y04579D02*
D03*
Y04679D02*
D03*
Y04779D02*
D03*
Y04879D02*
D03*
Y04979D02*
D03*
Y05079D02*
D03*
X08085Y03279D02*
D03*
Y03379D02*
D03*
Y03479D02*
D03*
Y03579D02*
D03*
Y03679D02*
D03*
Y03779D02*
D03*
Y03879D02*
D03*
Y03979D02*
D03*
Y04079D02*
D03*
Y04179D02*
D03*
Y04279D02*
D03*
Y04379D02*
D03*
Y04479D02*
D03*
Y04579D02*
D03*
Y04679D02*
D03*
Y04779D02*
D03*
Y04879D02*
D03*
Y04979D02*
D03*
Y05079D02*
D03*
Y05179D02*
D03*
X0808Y01136D02*
D03*
X0808Y01236D02*
D03*
Y01336D02*
D03*
Y01436D02*
D03*
X0808Y01536D02*
D03*
Y01636D02*
D03*
X0808Y01736D02*
D03*
Y01836D02*
D03*
Y01936D02*
D03*
X0808Y02036D02*
D03*
X0808Y02136D02*
D03*
Y02236D02*
D03*
Y02336D02*
D03*
X0808Y02436D02*
D03*
Y02536D02*
D03*
X0808Y02636D02*
D03*
Y02736D02*
D03*
Y02836D02*
D03*
X0808Y02936D02*
D03*
X0818Y01136D02*
D03*
Y01236D02*
D03*
Y01336D02*
D03*
Y01436D02*
D03*
Y01536D02*
D03*
Y01636D02*
D03*
Y01736D02*
D03*
Y01836D02*
D03*
Y01936D02*
D03*
Y02036D02*
D03*
Y02136D02*
D03*
Y02236D02*
D03*
Y02336D02*
D03*
Y02436D02*
D03*
Y02536D02*
D03*
Y02636D02*
D03*
Y02736D02*
D03*
Y02836D02*
D03*
Y02936D02*
D03*
Y03036D02*
D03*
D83*
X05466Y03279D02*
D03*
X05364Y01136D02*
D03*
X08185Y05179D02*
D03*
X0808Y03036D02*
D03*
M02*
